<svg width="320" height="202" viewBox="0 0 320 202" fill="none" xmlns="http://www.w3.org/2000/svg">
<g clip-path="url(#clip0_23_5778)">
<path d="M8.13934 188.02L12.4573 190.865L25.5267 175.627L19.1547 171.428L8.13934 188.02Z" fill="#9F616A"/>
<path d="M55.033 45.0772C54.5657 39.9884 54.1843 34.4988 56.8502 30.1333C57.6966 28.7485 58.8157 27.5487 60.14 26.6064C61.4644 25.6641 62.9665 24.9987 64.556 24.6504C66.1454 24.302 67.7892 24.2779 69.3883 24.5796C70.9873 24.8812 72.5085 25.5023 73.8601 26.4055C77.0277 28.5227 79.0307 32.0583 79.991 35.737C80.9513 39.4157 80.9736 43.2648 80.8878 47.0675C76.0516 48.2815 71.0099 48.445 66.1048 47.5468C64.8887 47.2669 63.4145 48.7306 62.1695 48.6475C60.9222 48.6198 61.7383 49.2081 59.8964 48.9747C59.6156 50.001 56.7835 48.7909 56.0269 48.0403C55.2704 47.2897 55.1304 46.1365 55.033 45.0772Z" fill="currentColor"/>
<path d="M57.202 197.647H63.281L65.5936 183.29H57.202V197.647Z" fill="#9F616A"/>
<path d="M91.4056 71.7136L109.555 58.7982C109.475 58.1217 109.594 57.4366 109.898 56.8262C110.201 56.2159 110.677 55.7067 111.266 55.3605C111.855 55.0144 112.532 54.8462 113.215 54.8765C113.898 54.9068 114.558 55.1343 115.114 55.5312C115.669 55.9281 116.097 56.4774 116.345 57.1122C116.593 57.747 116.651 58.44 116.511 59.1068C116.371 59.7736 116.04 60.3855 115.557 60.8681C115.074 61.3506 114.461 61.683 113.792 61.8248C111.524 63.7222 94.954 80.1393 92.5813 79.2733C90.1733 78.3946 79.6453 76.8033 79.6453 76.8033L79.3523 66.8451L91.4056 71.7136Z" fill="#9F616A"/>
<path d="M76.098 91.8849L78.8863 116.263C78.8863 116.263 74.6563 152.525 73.0963 158.649C71.5363 164.773 67.7663 187.245 67.7663 187.245H56.048L61.539 154.407L59.5353 123.693C59.5353 123.693 50.29 151.138 47.981 154.476C45.672 157.814 23.063 181.233 23.063 181.233L14.448 174.968L36.7427 141.661L44.5427 111.033C44.5427 111.033 43.5713 95.1917 52.3123 89.0908L76.098 91.8849Z" fill="currentColor"/>
<path d="M70.1943 47.1383C72.3422 46.8234 74.3188 45.7906 75.7999 44.2094C77.281 42.6282 78.1787 40.5924 78.3456 38.436C78.5126 36.2797 77.9388 34.1308 76.7186 32.342C75.4983 30.5533 73.704 29.2308 71.6301 28.5916C69.5561 27.9524 67.3256 28.0344 65.3046 28.8242C63.2836 29.614 61.592 31.0647 60.5075 32.9382C59.423 34.8118 59.0098 36.9969 59.3359 39.1351C59.662 41.2734 60.7079 43.2377 62.302 44.7058L60.1737 51.4506L69.2 52.646L70.1943 47.1383Z" fill="#9F616A"/>
<path d="M54.8763 54.8874C56.1096 52.4397 56.7096 50.5785 59.343 49.7848C61.1203 49.2488 68.3096 50.0521 69.929 50.9567C72.6233 52.4613 70.1816 54.1184 71.7713 56.757L76.9556 65.3617C78.1436 67.3336 79.344 69.3337 79.9866 71.5426C80.6293 73.7516 80.66 76.2308 79.5656 78.2562C78.5863 80.0686 76.8123 81.3541 75.827 83.1639C74.8026 85.0458 76.6413 93.4489 77.5936 95.3676L77.136 95.5781C70.7979 95.949 64.439 95.7361 58.1403 94.9422C56.577 94.745 51.307 93.0623 50.0196 92.1574C48.122 90.8258 51.0196 89.8353 50.549 87.5708C48.2922 76.5007 49.8146 64.9966 54.8743 54.8874H54.8763Z" fill="#E4E4E4"/>
<path d="M76.3173 78.5936C73.479 75.8145 70.626 73.0191 68.2896 69.8099C65.9533 66.6007 64.136 62.9267 63.628 58.9949C63.4108 57.7402 63.497 56.4521 63.8793 55.2372C64.3146 54.0464 65.2793 52.9894 66.5213 52.7174C68.5096 52.2824 70.318 53.8634 71.738 55.3179L84.2903 68.1827L76.2946 78.6677L76.3173 78.5936Z" fill="#E4E4E4"/>
<path d="M45.3807 80.7342C46.2627 78.3353 47.86 67.8471 47.86 67.8471L57.856 67.5552L52.969 79.5633L66.305 98.1621C66.305 98.1621 66.2803 98.203 66.2353 98.2757C66.9364 98.1636 67.6552 98.265 68.2975 98.5666C68.9398 98.8682 69.4758 99.3559 69.8353 99.9659C70.1948 100.576 70.361 101.28 70.3123 101.986C70.2636 102.691 70.0022 103.366 69.5623 103.921C69.1224 104.477 68.5245 104.887 67.8468 105.098C67.1691 105.309 66.4432 105.311 65.7641 105.105C65.085 104.898 64.4843 104.492 64.0406 103.94C63.5969 103.388 63.3309 102.715 63.2773 102.01C63.2283 102.037 63.171 102.048 63.1153 102.038C63.0596 102.029 63.0089 102 62.972 101.957C61.4873 100.102 44.5 83.1328 45.3807 80.7342Z" fill="#9F616A"/>
<path d="M44.3643 74.1103C45.282 70.2526 46.2063 66.3729 47.753 62.7201C49.2997 59.0673 51.5143 55.6157 54.629 53.1494C55.5942 52.3148 56.7453 51.7215 57.9867 51.4187C59.2353 51.1736 60.6417 51.4479 61.5183 52.3664C62.9213 53.8361 62.499 56.1955 61.985 58.1581L57.435 75.5176L44.291 74.1295L44.3643 74.1103Z" fill="#E4E4E4"/>
<path d="M56.9435 40.7525C56.7151 38.4381 56.4923 36.1023 56.6881 33.8284C56.884 31.5544 57.5277 29.3203 58.8336 27.7572C60.9012 25.2828 64.2326 24.9021 67.297 25.3472C69.6664 25.6914 72.0865 26.4871 74.0975 28.1973C76.1085 29.9074 77.6521 32.6534 77.7067 35.4811L68.132 35.056C66.6547 37.0837 65.9126 39.5511 66.0272 42.0539C66.1746 44.7057 67.3497 47.1969 69.3049 49.0024C67.0614 48.6217 64.8845 48.9193 62.6423 48.5383C61.2585 48.3048 59.7023 47.3308 58.6414 46.1557C57.4125 44.7926 57.1352 42.6748 56.9435 40.7525Z" fill="currentColor"/>
<path d="M16.9974 183.786C16.9974 183.786 18.6131 182.67 19.203 183.018C19.793 183.367 24.3681 190.606 24.3681 190.606C24.3681 190.606 30.7306 196.275 25.7938 196.545C20.8571 196.815 7.87353 189.147 7.98123 187.617C8.08893 186.087 12.0055 181.716 12.0055 181.716C12.0055 181.716 14.3998 185.754 16.9974 183.786Z" fill="currentColor"/>
<path d="M63.0206 193.119C63.0206 193.119 63.5913 191.363 64.2756 191.407C64.96 191.45 72.3336 195.83 72.3336 195.83C72.3336 195.83 80.5833 198.001 76.31 200.475C72.0366 202.948 56.98 201.99 56.379 200.579C55.778 199.168 57.1643 193.539 57.1643 193.539C57.1643 193.539 61.6053 196.046 63.0193 193.117" fill="currentColor"/>
<path d="M129.797 194.071C130.007 194.08 130.215 194.025 130.392 193.913C130.57 193.801 130.708 193.638 130.789 193.445C130.87 193.252 130.89 193.039 130.845 192.834C130.8 192.63 130.694 192.444 130.54 192.302L130.469 192.024L130.497 191.958C130.709 191.46 131.063 191.036 131.515 190.739C131.968 190.441 132.498 190.283 133.04 190.286C133.583 190.288 134.112 190.449 134.562 190.75C135.012 191.051 135.363 191.478 135.571 191.977C136.401 193.969 137.457 195.961 137.717 198.067C137.832 198.998 137.784 199.942 137.575 200.856C139.523 196.621 140.535 192.018 140.541 187.358C140.542 186.189 140.476 185.021 140.346 183.859C140.238 182.907 140.089 181.961 139.897 181.022C138.853 175.926 136.61 171.15 133.353 167.086C131.777 166.229 130.502 164.911 129.701 163.311C129.41 162.735 129.205 162.121 129.091 161.487C129.269 161.51 129.762 158.812 129.628 158.647C129.875 158.272 130.319 158.086 130.59 157.72C131.936 155.902 133.79 156.219 134.758 158.69C136.825 159.73 136.846 161.454 135.577 163.113C134.77 164.168 134.659 165.596 133.951 166.726C134.024 166.819 134.099 166.909 134.172 167.002C135.504 168.708 136.666 170.541 137.639 172.473C137.402 170.308 137.685 168.118 138.463 166.084C139.252 164.188 140.73 162.591 142.034 160.951C143.598 158.982 146.806 159.841 147.081 162.338C147.084 162.362 147.087 162.386 147.089 162.41C146.896 162.519 146.707 162.634 146.522 162.756C146.29 162.911 146.109 163.132 146.005 163.391C145.901 163.65 145.877 163.934 145.938 164.206C145.998 164.478 146.14 164.726 146.344 164.917C146.548 165.107 146.806 165.232 147.082 165.275L147.111 165.279C147.042 165.974 146.92 166.662 146.746 167.338C148.417 173.775 144.81 176.119 139.66 176.224C139.546 176.282 139.435 176.34 139.321 176.396C140.299 179.156 140.913 182.032 141.146 184.951C141.278 186.673 141.27 188.402 141.123 190.123L141.131 190.062C141.504 188.149 142.529 186.422 144.031 185.174C146.265 183.348 149.417 182.675 151.825 181.207C152.081 181.043 152.378 180.956 152.683 180.955C152.987 180.954 153.285 181.04 153.541 181.203C153.798 181.365 154.003 181.597 154.132 181.872C154.26 182.146 154.307 182.452 154.267 182.752L154.257 182.816C153.898 182.962 153.549 183.13 153.211 183.319C153.018 183.427 152.829 183.543 152.644 183.665C152.412 183.82 152.231 184.041 152.127 184.3C152.023 184.558 151.999 184.843 152.06 185.115C152.12 185.387 152.262 185.635 152.466 185.826C152.67 186.016 152.928 186.141 153.204 186.183L153.233 186.188L153.291 186.196C152.678 187.655 151.817 188.998 150.746 190.166C149.702 195.785 145.215 196.318 140.415 194.683H140.412C139.886 196.962 139.123 199.181 138.136 201.304H130.002C129.973 201.214 129.947 201.121 129.921 201.031C130.673 201.078 131.429 201.034 132.171 200.898C131.568 200.16 130.964 199.417 130.361 198.679C130.347 198.666 130.334 198.651 130.323 198.636C130.017 198.258 129.708 197.884 129.402 197.507C129.385 196.35 129.519 195.195 129.798 194.072L129.797 194.071Z" fill="#F2F2F2"/>
<path d="M0 201.466C0 201.763 0.418 202.001 0.938667 202.001H319.061C319.582 202.001 320 201.763 320 201.466C320 201.17 319.582 200.931 319.061 200.931H0.938667C0.418 200.93 0 201.167 0 201.466Z" fill="currentColor"/>
<path d="M292.394 201.881H176.568C170.468 201.881 165.507 197.902 165.507 193.012V8.8687C165.507 3.97858 170.469 0 176.568 0H292.394C298.494 0 303.455 3.97858 303.455 8.8687V193.012C303.455 197.902 298.493 201.881 292.394 201.881ZM176.568 0.899257C171.078 0.899257 166.629 4.46706 166.629 8.86904V193.012C166.629 197.413 171.079 200.982 176.568 200.982H292.394C297.884 200.982 302.334 197.414 302.334 193.012V67.7604C302.334 30.8337 265 0.899257 218.945 0.899257H176.568Z" fill="currentColor"/>
<path d="M191.986 69.2954C194.129 69.2954 196.223 69.9284 198.005 71.1143C199.787 72.3001 201.175 73.9857 201.995 75.9577C202.815 77.9298 203.029 80.0998 202.611 82.1933C202.193 84.2868 201.162 86.2099 199.647 87.7192C198.132 89.2285 196.201 90.2564 194.1 90.6729C191.998 91.0893 189.82 90.8756 187.841 90.0587C185.861 89.2419 184.169 87.8586 182.979 86.0838C181.788 84.309 181.153 82.2224 181.153 80.0878C181.153 77.2255 182.294 74.4804 184.326 72.4564C186.358 70.4325 189.113 69.2954 191.986 69.2954Z" fill="#E6E6E6"/>
<path d="M250.057 69.2954C252.2 69.2954 254.294 69.9284 256.076 71.1143C257.858 72.3001 259.246 73.9857 260.066 75.9577C260.886 77.9298 261.101 80.0998 260.683 82.1933C260.264 84.2868 259.233 86.2099 257.718 87.7192C256.203 89.2285 254.272 90.2564 252.171 90.6729C250.069 91.0893 247.891 90.8756 245.912 90.0587C243.932 89.2419 242.24 87.8586 241.05 86.0838C239.859 84.309 239.224 82.2224 239.224 80.0878C239.224 77.2255 240.365 74.4804 242.397 72.4564C244.429 70.4325 247.184 69.2954 250.057 69.2954Z" fill="#E6E6E6"/>
<path d="M221.022 69.2954C223.165 69.2954 225.259 69.9284 227.041 71.1143C228.822 72.3001 230.211 73.9857 231.031 75.9577C231.851 77.9298 232.065 80.0998 231.647 82.1933C231.229 84.2868 230.197 86.2099 228.682 87.7192C227.167 89.2285 225.237 90.2564 223.135 90.6729C221.034 91.0893 218.856 90.8756 216.876 90.0587C214.897 89.2419 213.205 87.8586 212.014 86.0838C210.824 84.309 210.189 82.2224 210.189 80.0878C210.189 77.2255 211.33 74.4804 213.362 72.4564C215.393 70.4325 218.149 69.2954 221.022 69.2954Z" fill="#E6E6E6"/>
<path d="M191.986 100.319C194.129 100.319 196.223 100.952 198.005 102.138C199.787 103.324 201.175 105.009 201.995 106.981C202.815 108.953 203.029 111.123 202.611 113.217C202.193 115.31 201.162 117.233 199.647 118.743C198.132 120.252 196.201 121.28 194.1 121.696C191.998 122.113 189.82 121.899 187.841 121.082C185.861 120.265 184.169 118.882 182.979 117.107C181.788 115.332 181.153 113.246 181.153 111.111C181.153 108.249 182.294 105.504 184.326 103.48C186.358 101.456 189.113 100.319 191.986 100.319Z" fill="#E6E6E6"/>
<path d="M250.057 100.319C252.2 100.319 254.294 100.952 256.076 102.138C257.858 103.324 259.246 105.009 260.066 106.981C260.886 108.953 261.101 111.123 260.683 113.217C260.264 115.31 259.233 117.233 257.718 118.743C256.203 120.252 254.272 121.28 252.171 121.696C250.069 122.113 247.891 121.899 245.912 121.082C243.932 120.265 242.24 118.882 241.05 117.107C239.859 115.332 239.224 113.246 239.224 111.111C239.224 108.249 240.365 105.504 242.397 103.48C244.429 101.456 247.184 100.319 250.057 100.319Z" fill="#E6E6E6"/>
<path d="M221.022 100.319C223.165 100.319 225.259 100.952 227.041 102.138C228.822 103.324 230.211 105.009 231.031 106.981C231.851 108.953 232.065 111.123 231.647 113.217C231.229 115.31 230.197 117.233 228.682 118.743C227.167 120.252 225.237 121.28 223.135 121.696C221.034 122.113 218.856 121.899 216.876 121.082C214.897 120.265 213.205 118.882 212.014 117.107C210.824 115.332 210.189 113.246 210.189 111.111C210.189 108.249 211.33 105.504 213.362 103.48C215.393 101.456 218.149 100.319 221.022 100.319Z" fill="#E6E6E6"/>
<path d="M191.986 131.343C194.129 131.343 196.223 131.976 198.005 133.162C199.787 134.348 201.175 136.033 201.995 138.005C202.815 139.977 203.029 142.147 202.611 144.241C202.193 146.334 201.162 148.257 199.647 149.767C198.132 151.276 196.201 152.304 194.1 152.72C191.998 153.137 189.82 152.923 187.841 152.106C185.861 151.289 184.169 149.906 182.979 148.131C181.788 146.356 181.153 144.27 181.153 142.135C181.153 139.273 182.294 136.528 184.326 134.504C186.358 132.48 189.113 131.343 191.986 131.343Z" fill="#E6E6E6"/>
<path d="M249.836 162.314C251.978 162.314 254.073 162.947 255.854 164.133C257.636 165.319 259.024 167.004 259.844 168.976C260.664 170.948 260.879 173.118 260.461 175.212C260.043 177.305 259.011 179.228 257.496 180.738C255.981 182.247 254.051 183.275 251.949 183.691C249.848 184.108 247.669 183.894 245.69 183.077C243.71 182.26 242.018 180.877 240.828 179.102C239.638 177.328 239.002 175.241 239.002 173.106C239.002 170.244 240.144 167.499 242.175 165.475C244.207 163.451 246.962 162.314 249.836 162.314Z" fill="#E6E6E6"/>
<path d="M250.057 131.343C252.2 131.343 254.294 131.976 256.076 133.162C257.858 134.348 259.246 136.033 260.066 138.005C260.886 139.977 261.101 142.147 260.683 144.241C260.264 146.334 259.233 148.257 257.718 149.767C256.203 151.276 254.272 152.304 252.171 152.72C250.069 153.137 247.891 152.923 245.912 152.106C243.932 151.289 242.24 149.906 241.05 148.131C239.859 146.356 239.224 144.27 239.224 142.135C239.224 139.273 240.365 136.528 242.397 134.504C244.429 132.48 247.184 131.343 250.057 131.343Z" fill="#E6E6E6"/>
<path d="M221.022 131.343C223.165 131.343 225.259 131.976 227.041 133.162C228.822 134.348 230.211 136.033 231.031 138.005C231.851 139.977 232.065 142.147 231.647 144.241C231.229 146.334 230.197 148.257 228.682 149.767C227.167 151.276 225.237 152.304 223.135 152.72C221.034 153.137 218.856 152.923 216.876 152.106C214.897 151.289 213.205 149.906 212.014 148.131C210.824 146.356 210.189 144.27 210.189 142.135C210.189 139.273 211.33 136.528 213.362 134.504C215.393 132.48 218.149 131.343 221.022 131.343Z" fill="#E6E6E6"/>
<path d="M223.148 12.5894H119.554C118.078 12.5908 116.662 13.1758 115.618 14.2161C114.573 15.2563 113.986 16.6668 113.985 18.138V56.0499C113.986 57.521 114.573 58.9315 115.618 59.9718C116.662 61.0121 118.078 61.5971 119.554 61.5985H223.148C224.625 61.5971 226.041 61.0121 227.085 59.9718C228.129 58.9315 228.716 57.521 228.718 56.0499V18.138C228.716 16.6668 228.129 15.2563 227.085 14.2161C226.041 13.1758 224.625 12.5908 223.148 12.5894Z" fill="white"/>
<path d="M223.148 12.5894H119.554C118.078 12.5908 116.662 13.1758 115.618 14.2161C114.573 15.2563 113.986 16.6668 113.985 18.138V56.0499C113.986 57.521 114.573 58.9315 115.618 59.9718C116.662 61.0121 118.078 61.5971 119.554 61.5985H223.148C224.625 61.5971 226.041 61.0121 227.085 59.9718C228.129 58.9315 228.716 57.521 228.718 56.0499V18.138C228.716 16.6668 228.129 15.2563 227.085 14.2161C226.041 13.1758 224.625 12.5908 223.148 12.5894ZM228.132 56.0499C228.131 57.3664 227.605 58.6286 226.671 59.5595C225.737 60.4904 224.469 61.0138 223.148 61.0147H119.554C118.233 61.0138 116.966 60.4903 116.031 59.5594C115.097 58.6285 114.571 57.3661 114.57 56.0496V18.138C114.571 16.8214 115.097 15.5591 116.031 14.6281C116.966 13.6972 118.233 13.1738 119.554 13.1728H223.148C224.47 13.1738 225.737 13.6972 226.671 14.6281C227.606 15.5591 228.131 16.8214 228.132 18.138V56.0499Z" fill="currentColor"/>
<path d="M130.281 30.5742H212.422C214.158 30.5742 215.823 31.2611 217.05 32.4838C218.277 33.7064 218.967 35.3647 218.967 37.0938C218.967 38.8229 218.277 40.4812 217.05 41.7039C215.823 42.9266 214.158 43.6134 212.422 43.6134H130.281C128.545 43.6134 126.88 42.9266 125.653 41.7039C124.426 40.4812 123.736 38.8229 123.736 37.0938C123.736 35.3647 124.426 33.7064 125.653 32.4838C126.88 31.2611 128.545 30.5742 130.281 30.5742Z" fill="#139D98"/>
<path d="M279.092 69.2954C281.235 69.2954 283.329 69.9284 285.111 71.1143C286.893 72.3001 288.281 73.9857 289.101 75.9577C289.921 77.9298 290.135 80.0998 289.717 82.1933C289.299 84.2868 288.268 86.2099 286.753 87.7192C285.238 89.2285 283.307 90.2564 281.206 90.6729C279.104 91.0893 276.926 90.8756 274.947 90.0587C272.967 89.2419 271.275 87.8586 270.085 86.0838C268.894 84.309 268.259 82.2224 268.259 80.0878C268.259 77.2255 269.4 74.4804 271.432 72.4564C273.464 70.4325 276.219 69.2954 279.092 69.2954Z" fill="#E6E6E6"/>
<path d="M279.092 100.319C281.235 100.319 283.329 100.952 285.111 102.138C286.893 103.324 288.281 105.009 289.101 106.981C289.921 108.953 290.135 111.123 289.717 113.217C289.299 115.31 288.268 117.233 286.753 118.743C285.238 120.252 283.307 121.28 281.206 121.696C279.104 122.113 276.926 121.899 274.947 121.082C272.967 120.265 271.275 118.882 270.085 117.107C268.894 115.332 268.259 113.246 268.259 111.111C268.259 108.249 269.4 105.504 271.432 103.48C273.464 101.456 276.219 100.319 279.092 100.319Z" fill="#E6E6E6"/>
<path d="M278.871 162.314C281.013 162.314 283.108 162.947 284.889 164.133C286.671 165.319 288.059 167.004 288.879 168.976C289.699 170.948 289.914 173.118 289.496 175.212C289.078 177.305 288.046 179.228 286.531 180.738C285.016 182.247 283.086 183.275 280.984 183.691C278.883 184.108 276.704 183.894 274.725 183.077C272.745 182.26 271.053 180.877 269.863 179.102C268.673 177.328 268.037 175.241 268.037 173.106C268.037 170.244 269.179 167.499 271.21 165.475C273.242 163.451 275.998 162.314 278.871 162.314Z" fill="#139D98"/>
<path d="M191.926 162.149H220.811C222.249 162.125 223.677 162.387 225.012 162.918C226.347 163.45 227.562 164.241 228.588 165.245C229.613 166.25 230.427 167.447 230.983 168.768C231.538 170.089 231.825 171.507 231.825 172.94C231.825 174.372 231.538 175.79 230.983 177.111C230.427 178.432 229.613 179.63 228.588 180.634C227.562 181.639 226.347 182.43 225.012 182.962C223.677 183.493 222.249 183.755 220.811 183.731H191.926C189.084 183.684 186.375 182.526 184.382 180.507C182.39 178.489 181.273 175.771 181.273 172.94C181.273 170.109 182.39 167.391 184.382 165.372C186.375 163.354 189.084 162.196 191.926 162.149Z" fill="#139D98"/>
<path d="M278.979 115.343C278.862 115.343 278.745 115.32 278.637 115.275C278.528 115.23 278.43 115.164 278.347 115.082C278.264 114.999 278.198 114.901 278.153 114.793C278.108 114.684 278.085 114.568 278.085 114.451V112.113H275.737C275.5 112.113 275.272 112.019 275.104 111.852C274.936 111.684 274.841 111.458 274.841 111.221V110.999C274.841 110.763 274.936 110.536 275.104 110.369C275.272 110.202 275.5 110.108 275.737 110.108H278.085V107.769C278.085 107.652 278.108 107.536 278.153 107.428C278.198 107.32 278.264 107.222 278.347 107.139C278.43 107.056 278.528 106.991 278.637 106.946C278.745 106.901 278.862 106.878 278.979 106.878H279.203C279.32 106.878 279.437 106.901 279.545 106.946C279.654 106.99 279.752 107.056 279.835 107.139C279.918 107.221 279.984 107.32 280.029 107.428C280.074 107.536 280.098 107.651 280.098 107.768V110.108H282.445C282.682 110.108 282.91 110.201 283.078 110.368C283.246 110.536 283.34 110.763 283.34 110.999V111.221C283.34 111.339 283.316 111.454 283.271 111.563C283.226 111.671 283.161 111.769 283.077 111.852C282.994 111.935 282.896 112 282.787 112.045C282.678 112.09 282.562 112.112 282.445 112.112H280.098V114.451C280.098 114.687 280.003 114.914 279.835 115.081C279.668 115.248 279.44 115.342 279.203 115.342L278.979 115.343Z" fill="currentColor"/>
<path d="M279.032 131.125C281.175 131.125 283.269 131.758 285.051 132.944C286.832 134.13 288.221 135.815 289.041 137.787C289.861 139.759 290.075 141.929 289.657 144.023C289.239 146.116 288.207 148.039 286.692 149.549C285.177 151.058 283.247 152.086 281.145 152.502C279.044 152.919 276.866 152.705 274.886 151.888C272.907 151.071 271.215 149.688 270.024 147.913C268.834 146.139 268.199 144.052 268.199 141.917C268.199 139.055 269.34 136.31 271.372 134.286C273.403 132.262 276.159 131.125 279.032 131.125Z" fill="#E6E6E6"/>
<path d="M275.864 143.023C275.627 143.022 275.399 142.928 275.231 142.761C275.063 142.594 274.969 142.367 274.969 142.131V141.907C274.969 141.67 275.063 141.444 275.231 141.277C275.399 141.11 275.627 141.016 275.864 141.016H282.572C282.689 141.016 282.805 141.039 282.914 141.083C283.023 141.128 283.122 141.193 283.205 141.276C283.288 141.359 283.354 141.457 283.399 141.565C283.444 141.674 283.467 141.79 283.467 141.907V142.13C283.467 142.247 283.444 142.363 283.399 142.471C283.354 142.579 283.288 142.678 283.205 142.76C283.122 142.843 283.023 142.909 282.914 142.954C282.805 142.999 282.689 143.022 282.572 143.022L275.864 143.023Z" fill="currentColor"/>
</g>
<defs>
<clipPath id="clip0_23_5778">
<rect width="320" height="202" fill="white"/>
</clipPath>
</defs>
</svg>
