<svg width="160" height="38" viewBox="0 0 160 38" fill="none" xmlns="http://www.w3.org/2000/svg">
<g clip-path="url(#clip0_6_18170)">
<path fill-rule="evenodd" clip-rule="evenodd" d="M102.344 28.3837C102.292 28.4101 102.214 28.4876 102.187 28.5388C102.161 28.59 102.473 28.3837 102.187 28.6939C101.902 29.0041 100.781 30.1162 100.469 30.4001C100.156 30.6839 100.417 30.3225 100.312 30.4001C100.208 30.4776 99.8437 30.8654 99.8437 30.8654C99.8437 30.8654 105.652 36.6817 106.875 37.845C108.098 39.0082 107.083 37.8961 107.187 37.845C107.292 37.7938 107.422 37.5859 107.5 37.5348C107.578 37.4836 107.395 37.7674 107.656 37.5348C107.917 37.3021 108.828 36.3979 109.062 36.1388C109.297 35.8798 109.011 36.0613 109.062 35.9837C109.114 35.9062 109.323 35.8023 109.375 35.6735C109.427 35.5448 110.52 36.4227 109.375 35.2082C108.23 33.9938 103.672 29.5206 102.5 28.3837C101.328 27.2468 102.395 28.3574 102.344 28.3837ZM98.4375 17.9919C98.4375 17.9919 98.3328 17.9407 98.2812 17.8368C98.2297 17.7329 98.125 17.3715 98.125 17.3715C98.125 17.3715 98.1515 17.2164 97.9687 17.3715C97.7859 17.5266 97.214 18.147 97.0312 18.3021C96.8484 18.4572 97.0047 18.1982 96.875 18.3021C96.7453 18.406 96.3797 18.8186 96.25 18.9225C96.1203 19.0264 96.1453 18.9489 96.0937 18.9225C96.0422 18.8961 96.0422 18.7938 95.9375 18.7674C95.8328 18.741 95.5734 18.741 95.4687 18.7674C95.364 18.7938 95.4172 18.8713 95.3125 18.9225C95.2078 18.9737 94.8437 19.0776 94.8437 19.0776C94.8437 19.0776 94.739 18.9489 94.6875 18.9225C94.6359 18.8961 94.5828 18.9489 94.5312 18.9225C94.4797 18.8961 94.5828 18.8713 94.375 18.7674C94.1672 18.6635 93.5156 18.4308 93.2812 18.3021C93.0468 18.1734 93.0203 18.0958 92.9687 17.9919C92.9172 17.888 93.0468 17.8368 92.9687 17.6817C92.8906 17.5266 92.6047 17.1652 92.5 17.0613C92.3953 16.9574 92.3953 17.0876 92.3437 17.0613C92.2922 17.0349 92.3172 16.9325 92.1875 16.9062C92.0578 16.8798 91.7703 16.8286 91.5625 16.9062C91.3547 16.9837 91.0672 17.1652 90.9375 17.3715C90.8078 17.5778 90.7812 18.147 90.7812 18.147C90.7812 18.147 90.9109 18.2245 90.9375 18.3021C90.964 18.3796 90.9109 18.5347 90.9375 18.6123C90.964 18.6899 91.0672 18.7162 91.0937 18.7674C91.1203 18.8186 91.1203 18.8713 91.0937 18.9225C91.0672 18.9737 90.964 19.0264 90.9375 19.0776C90.9109 19.1288 90.964 19.1815 90.9375 19.2327C90.9109 19.2839 90.8078 19.3366 90.7812 19.3878C90.7547 19.439 90.8078 19.4917 90.7812 19.5429C90.7547 19.5941 90.6515 19.6468 90.625 19.698C90.5984 19.7492 90.6515 19.8019 90.625 19.8531C90.5984 19.9043 90.4953 19.957 90.4687 20.0082C90.4422 20.0594 90.4953 20.1121 90.4687 20.1633C90.4422 20.2145 90.339 20.2672 90.3125 20.3184C90.2859 20.3696 90.339 20.4223 90.3125 20.4735C90.2859 20.5247 90.2609 20.4223 90.1562 20.6286C90.0515 20.8349 89.8172 21.4817 89.6875 21.7143C89.5578 21.947 89.4531 21.9734 89.375 22.0245C89.2968 22.0757 89.2703 21.9982 89.2187 22.0245C89.1672 22.0509 89.1406 22.1533 89.0625 22.1796C88.9843 22.206 88.8547 22.1285 88.75 22.1796C88.6453 22.2308 88.5156 22.4387 88.4375 22.4899C88.3593 22.541 88.3859 22.541 88.2812 22.4899C88.1765 22.4387 87.9422 22.2308 87.8125 22.1796C87.6828 22.1285 87.5781 22.206 87.5 22.1796C87.4218 22.1533 87.4218 22.0509 87.3437 22.0245C87.2656 21.9982 87.1093 22.0509 87.0312 22.0245C86.9531 21.9982 87.0312 21.9206 86.875 21.8694C86.7187 21.8183 86.25 21.7655 86.0937 21.7143C85.9375 21.6632 85.989 21.5856 85.9375 21.5592C85.8859 21.5329 85.7812 21.5592 85.7812 21.5592C85.7812 21.5592 85.7297 21.8694 85.7812 22.0245C85.8328 22.1796 86.0937 22.4899 86.0937 22.4899C86.0937 22.4899 86.3281 22.4635 86.4062 22.4899C86.4843 22.5162 86.4843 22.6186 86.5625 22.645C86.6406 22.6713 86.7968 22.6186 86.875 22.645C86.9531 22.6713 86.9531 22.7737 87.0312 22.8001C87.1093 22.8264 87.2656 22.7737 87.3437 22.8001C87.4218 22.8264 87.4218 22.9288 87.5 22.9552C87.5781 22.9815 87.7343 22.9288 87.8125 22.9552C87.8906 22.9815 87.9172 23.0839 87.9687 23.1103C88.0203 23.1366 88.0734 23.0839 88.125 23.1103C88.1765 23.1366 88.2547 23.1878 88.2812 23.2654C88.3078 23.3429 88.1765 23.4205 88.2812 23.5756C88.3859 23.7307 88.6718 24.0921 88.9062 24.196C89.1406 24.2999 89.4531 24.2735 89.6875 24.196C89.9218 24.1184 90.1828 23.937 90.3125 23.7307C90.4422 23.5244 90.4687 22.9552 90.4687 22.9552C90.4687 22.9552 90.364 22.904 90.3125 22.8001C90.2609 22.6961 90.1562 22.3348 90.1562 22.3348C90.1562 22.3348 90.2859 22.2308 90.3125 22.1796C90.339 22.1285 90.2859 22.0757 90.3125 22.0245C90.339 21.9734 90.4422 21.9206 90.4687 21.8694C90.4953 21.8183 90.3125 22.0245 90.4687 21.7143C90.625 21.4041 91.25 20.3448 91.4062 20.0082C91.5625 19.6716 91.3797 19.7756 91.4062 19.698C91.4328 19.6205 91.5359 19.5941 91.5625 19.5429C91.589 19.4917 91.5109 19.4654 91.5625 19.3878C91.614 19.3103 91.7703 19.1288 91.875 19.0776C91.9797 19.0264 92.0578 19.1288 92.1875 19.0776C92.3172 19.0264 92.6562 18.7674 92.6562 18.7674C92.6562 18.7674 92.7609 18.8961 92.8125 18.9225C92.864 18.9489 92.9172 18.8961 92.9687 18.9225C93.0203 18.9489 93.0734 19.0512 93.125 19.0776C93.1765 19.104 93.2297 19.0512 93.2812 19.0776C93.3328 19.104 93.2297 19.1288 93.4375 19.2327C93.6453 19.3366 94.3234 19.5941 94.5312 19.698C94.739 19.8019 94.6609 19.7756 94.6875 19.8531C94.714 19.9307 94.6609 20.0858 94.6875 20.1633C94.714 20.2409 94.8172 20.2672 94.8437 20.3184C94.8703 20.3696 94.7922 20.396 94.8437 20.4735C94.8953 20.5511 95.0781 20.7325 95.1562 20.7837C95.2343 20.8349 95.2609 20.7574 95.3125 20.7837C95.364 20.8101 95.339 20.9125 95.4687 20.9388C95.5984 20.9652 95.8859 21.0164 96.0937 20.9388C96.3015 20.8613 96.614 20.6023 96.7187 20.4735C96.8234 20.3448 96.6922 20.2409 96.7187 20.1633C96.7453 20.0858 96.8484 20.0858 96.875 20.0082C96.9015 19.9307 96.9015 19.7756 96.875 19.698C96.8484 19.6205 96.7187 19.5429 96.7187 19.5429L98.4375 17.9919ZM89.2187 22.4899C89.3484 22.4387 89.4015 22.4123 89.5312 22.4899C89.6609 22.5674 89.9218 22.8264 90 22.9552C90.0781 23.0839 90.0781 23.1366 90 23.2654C89.9218 23.3941 89.6875 23.6531 89.5312 23.7307C89.375 23.8082 89.1922 23.7819 89.0625 23.7307C88.9328 23.6795 88.8015 23.5756 88.75 23.4205C88.6984 23.2654 88.75 22.8001 88.75 22.8001C88.75 22.8001 89.089 22.541 89.2187 22.4899ZM95.1562 19.5429C95.2078 19.3878 95.339 19.2839 95.4687 19.2327C95.5984 19.1815 95.7812 19.1552 95.9375 19.2327C96.0937 19.3103 96.3281 19.5693 96.4062 19.698C96.4843 19.8267 96.4843 19.8795 96.4062 20.0082C96.3281 20.137 96.0937 20.396 95.9375 20.4735C95.7812 20.5511 95.5984 20.5247 95.4687 20.4735C95.339 20.4223 95.2078 20.3184 95.1562 20.1633C95.1047 20.0082 95.1047 19.698 95.1562 19.5429ZM91.7187 17.3715C91.8484 17.2939 91.9015 17.3203 92.0312 17.3715C92.1609 17.4227 92.5 17.6817 92.5 17.6817C92.5 17.6817 92.5515 18.147 92.5 18.3021C92.4484 18.4572 92.3172 18.5611 92.1875 18.6123C92.0578 18.6635 91.875 18.6899 91.7187 18.6123C91.5625 18.5347 91.3281 18.2757 91.25 18.147C91.1718 18.0183 91.1718 17.9655 91.25 17.8368C91.3281 17.7081 91.589 17.449 91.7187 17.3715ZM130.469 9.30618C130.469 9.30618 130.442 28.1511 130.469 31.9511C130.495 35.7511 129.87 32.0798 130.625 32.1062C131.38 32.1325 134.245 32.1325 135 32.1062C135.755 32.0798 135.13 35.7247 135.156 31.9511C135.183 28.1774 135.183 13.2349 135.156 9.46128C135.13 5.68765 135.781 9.33255 135 9.30618C134.219 9.27981 130.469 9.30618 130.469 9.30618ZM25.4687 9.30618C25.4687 9.30618 25.4422 22.4635 25.4687 25.1266C25.4953 27.7897 25.5984 25.0754 25.625 25.2817C25.6515 25.488 25.5984 26.1611 25.625 26.3674C25.6515 26.5737 25.7547 26.3938 25.7812 26.5225C25.8078 26.6512 25.7547 27.0142 25.7812 27.1429C25.8078 27.2716 25.9109 27.1941 25.9375 27.298C25.964 27.4019 25.9109 27.6594 25.9375 27.7633C25.964 27.8672 26.0672 27.8409 26.0937 27.9184C26.1203 27.996 26.0422 28.0999 26.0937 28.2286C26.1453 28.3574 26.3547 28.5652 26.4062 28.6939C26.4578 28.8227 26.3281 28.849 26.4062 29.0041C26.4843 29.1592 26.7968 29.4958 26.875 29.6245C26.9531 29.7533 26.8234 29.7021 26.875 29.7796C26.9265 29.8572 27.1359 30.0123 27.1875 30.0899C27.239 30.1674 27.0312 30.0635 27.1875 30.245C27.3437 30.4264 27.9422 31.0205 28.125 31.1756C28.3078 31.3307 28.2031 31.1244 28.2812 31.1756C28.3593 31.2268 28.5156 31.4346 28.5937 31.4858C28.6718 31.537 28.5937 31.4082 28.75 31.4858C28.9062 31.5633 29.2703 31.8472 29.5312 31.9511C29.7922 32.055 30.1562 32.055 30.3125 32.1062C30.4687 32.1574 30.3125 32.2349 30.4687 32.2613C30.625 32.2876 31.0937 32.2349 31.25 32.2613C31.4062 32.2876 30.964 32.39 31.4062 32.4164C31.8484 32.4428 33.464 32.4428 33.9062 32.4164C34.3484 32.39 33.9062 32.2876 34.0625 32.2613C34.2187 32.2349 34.6875 32.2876 34.8437 32.2613C35 32.2349 34.8703 32.1325 35 32.1062C35.1297 32.0798 35.4953 32.1325 35.625 32.1062C35.7547 32.0798 35.625 32.0023 35.7812 31.9511C35.9375 31.8999 36.4062 31.8472 36.5625 31.796C36.7187 31.7448 36.6672 31.6672 36.7187 31.6409C36.7703 31.6145 36.8234 31.6672 36.875 31.6409C36.9265 31.6145 36.8234 31.5897 37.0312 31.4858C37.239 31.3819 37.8906 31.1492 38.125 31.0205C38.3593 30.8917 38.3593 30.7614 38.4375 30.7103C38.5156 30.6591 38.5156 30.7614 38.5937 30.7103C38.6718 30.6591 38.8281 30.4512 38.9062 30.4001C38.9843 30.3489 38.9062 30.5288 39.0625 30.4001C39.2187 30.2713 39.6875 29.7533 39.8437 29.6245C40 29.4958 39.7922 29.8308 40 29.6245C40.2078 29.4183 41.0937 28.3837 41.0937 28.3837C41.0937 28.3837 41.3547 28.6676 41.4062 28.849C41.4578 29.0305 41.3797 29.3407 41.4062 29.4694C41.4328 29.5982 41.5359 29.4958 41.5625 29.6245C41.589 29.7533 41.5359 30.1162 41.5625 30.245C41.589 30.3737 41.6922 30.245 41.7187 30.4001C41.7453 30.5552 41.6922 31.0205 41.7187 31.1756C41.7453 31.3307 41.8484 31.2019 41.875 31.3307C41.9015 31.4594 41.8484 31.8223 41.875 31.9511C41.9015 32.0798 41.3797 32.0798 42.0312 32.1062C42.6828 32.1325 45.7812 32.1062 45.7812 32.1062C45.7812 32.1062 45.8078 30.1938 45.7812 29.7796C45.7547 29.3655 45.6515 30.0123 45.625 29.6245C45.5984 29.2368 45.6515 27.8409 45.625 27.4531C45.5984 27.0654 45.4953 30.3225 45.4687 27.298C45.4422 24.2735 45.4687 9.30618 45.4687 9.30618H40.9375C40.9375 9.30618 41.0156 21.0939 40.9375 23.5756C40.8593 26.0572 40.5468 24.0672 40.4687 24.196C40.3906 24.3247 40.5468 24.2223 40.4687 24.3511C40.3906 24.4798 40.0781 24.8428 40 24.9715C39.9218 25.1002 40.1297 24.9715 40 25.1266C39.8703 25.2817 39.3484 25.747 39.2187 25.9021C39.089 26.0572 39.2968 25.9533 39.2187 26.0572C39.1406 26.1611 38.8547 26.445 38.75 26.5225C38.6453 26.6001 38.75 26.3938 38.5937 26.5225C38.4375 26.6512 37.9687 27.1693 37.8125 27.298C37.6562 27.4268 37.7343 27.2468 37.6562 27.298C37.5781 27.3492 37.4218 27.557 37.3437 27.6082C37.2656 27.6594 37.3437 27.5307 37.1875 27.6082C37.0312 27.6858 36.589 27.996 36.4062 28.0735C36.2234 28.1511 36.1718 28.0472 36.0937 28.0735C36.0156 28.0999 36.0672 28.2023 35.9375 28.2286C35.8078 28.255 35.4422 28.2023 35.3125 28.2286C35.1828 28.255 35.4422 28.3574 35.1562 28.3837C34.8703 28.4101 33.8797 28.4101 33.5937 28.3837C33.3078 28.3574 33.5422 28.255 33.4375 28.2286C33.3328 28.2023 33.0734 28.255 32.9687 28.2286C32.864 28.2023 32.8906 28.0999 32.8125 28.0735C32.7343 28.0472 32.5781 28.0999 32.5 28.0735C32.4218 28.0472 32.3953 27.9448 32.3437 27.9184C32.2922 27.8921 32.2656 27.9696 32.1875 27.9184C32.1093 27.8672 31.9531 27.6594 31.875 27.6082C31.7968 27.557 31.8484 27.7121 31.7187 27.6082C31.589 27.5043 31.1984 27.1165 31.0937 26.9878C30.989 26.8591 31.1453 26.9103 31.0937 26.8327C31.0422 26.7552 30.8328 26.6001 30.7812 26.5225C30.7297 26.445 30.8328 26.4713 30.7812 26.3674C30.7297 26.2635 30.5203 26.0308 30.4687 25.9021C30.4172 25.7734 30.4953 25.6694 30.4687 25.5919C30.4422 25.5143 30.339 25.5407 30.3125 25.4368C30.2859 25.3329 30.339 25.0754 30.3125 24.9715C30.2859 24.8676 30.1828 24.9715 30.1562 24.8164C30.1297 24.6613 30.1828 24.196 30.1562 24.0409C30.1297 23.8858 30.0265 26.341 30 23.8858C29.9734 21.4305 30 9.30618 30 9.30618H25.4687ZM143.281 10.2368C143.098 10.3407 143.047 10.4958 142.969 10.547C142.891 10.5982 143.047 10.3407 142.812 10.547C142.578 10.7533 141.77 11.5552 141.562 11.7878C141.355 12.0205 141.667 11.7366 141.562 11.9429C141.458 12.1492 141.042 12.796 140.937 13.0286C140.833 13.2613 140.964 13.2613 140.937 13.3388C140.911 13.4164 140.808 13.3652 140.781 13.4939C140.755 13.6227 140.808 13.9856 140.781 14.1143C140.755 14.2431 140.652 13.8553 140.625 14.2694C140.598 14.6836 140.598 16.1819 140.625 16.596C140.652 17.0101 140.755 16.6223 140.781 16.7511C140.808 16.8798 140.755 17.2428 140.781 17.3715C140.808 17.5002 140.911 17.449 140.937 17.5266C140.964 17.6041 140.911 17.7592 140.937 17.8368C140.964 17.9143 141.016 17.8368 141.094 17.9919C141.172 18.147 141.172 18.4308 141.406 18.7674C141.641 19.104 142.292 19.8019 142.5 20.0082C142.708 20.2145 142.552 19.9307 142.656 20.0082C142.761 20.0858 143.02 20.396 143.125 20.4735C143.23 20.5511 143.203 20.4223 143.281 20.4735C143.359 20.5247 143.516 20.7325 143.594 20.7837C143.672 20.8349 143.645 20.7325 143.75 20.7837C143.855 20.8349 144.089 21.0428 144.219 21.0939C144.348 21.1451 144.402 21.0428 144.531 21.0939C144.661 21.1451 144.87 21.353 145 21.4041C145.13 21.4553 145.234 21.3778 145.312 21.4041C145.391 21.4305 145.391 21.5329 145.469 21.5592C145.547 21.5856 145.703 21.5329 145.781 21.5592C145.859 21.5856 145.833 21.688 145.937 21.7143C146.042 21.7407 146.302 21.688 146.406 21.7143C146.511 21.7407 146.484 21.8431 146.562 21.8694C146.641 21.8958 146.797 21.8431 146.875 21.8694C146.953 21.8958 146.927 21.9982 147.031 22.0245C147.136 22.0509 147.395 21.9982 147.5 22.0245C147.605 22.0509 147.552 22.1533 147.656 22.1796C147.761 22.206 148.02 22.1533 148.125 22.1796C148.23 22.206 148.177 22.3084 148.281 22.3348C148.386 22.3611 148.645 22.3084 148.75 22.3348C148.855 22.3611 148.802 22.4635 148.906 22.4899C149.011 22.5162 149.27 22.4635 149.375 22.4899C149.48 22.5162 149.427 22.6186 149.531 22.645C149.636 22.6713 149.895 22.6186 150 22.645C150.105 22.6713 150.052 22.7737 150.156 22.8001C150.261 22.8264 150.52 22.7737 150.625 22.8001C150.73 22.8264 150.677 22.9288 150.781 22.9552C150.886 22.9815 151.145 22.9288 151.25 22.9552C151.355 22.9815 151.328 23.0839 151.406 23.1103C151.484 23.1366 151.641 23.0839 151.719 23.1103C151.797 23.1366 151.77 23.239 151.875 23.2654C151.98 23.2917 152.239 23.239 152.344 23.2654C152.448 23.2917 152.292 23.3165 152.5 23.4205C152.708 23.5244 153.359 23.757 153.594 23.8858C153.828 24.0145 153.828 24.1448 153.906 24.196C153.984 24.2472 153.906 24.0409 154.062 24.196C154.219 24.3511 154.714 24.9203 154.844 25.1266C154.973 25.3329 154.817 25.3592 154.844 25.4368C154.87 25.5143 154.973 25.3856 155 25.5919C155.027 25.7982 155.027 26.4713 155 26.6776C154.973 26.8839 154.87 26.7552 154.844 26.8327C154.817 26.9103 154.87 27.0654 154.844 27.1429C154.817 27.2205 154.714 27.2468 154.687 27.298C154.661 27.3492 154.844 27.2716 154.687 27.4531C154.531 27.6346 153.933 28.2286 153.75 28.3837C153.567 28.5388 153.698 28.3325 153.594 28.3837C153.489 28.4349 153.255 28.6427 153.125 28.6939C152.995 28.7451 152.891 28.6676 152.812 28.6939C152.734 28.7203 152.786 28.8227 152.656 28.849C152.527 28.8754 152.161 28.8227 152.031 28.849C151.902 28.8754 152.448 28.9778 151.875 29.0041C151.302 29.0305 149.167 29.0305 148.594 29.0041C148.02 28.9778 148.567 28.8754 148.437 28.849C148.308 28.8227 147.942 28.8754 147.812 28.849C147.683 28.8227 147.812 28.7451 147.656 28.6939C147.5 28.6427 147.031 28.59 146.875 28.5388C146.719 28.4876 146.823 28.4349 146.719 28.3837C146.614 28.3325 146.38 28.3062 146.25 28.2286C146.12 28.1511 146.016 27.9696 145.937 27.9184C145.859 27.8672 145.886 27.996 145.781 27.9184C145.677 27.8409 145.391 27.557 145.312 27.4531C145.234 27.3492 145.364 27.3756 145.312 27.298C145.261 27.2205 145.052 27.0654 145 26.9878C144.948 26.9103 145.052 26.9366 145 26.8327C144.948 26.7288 144.739 26.4961 144.687 26.3674C144.636 26.2387 144.714 26.1348 144.687 26.0572C144.661 25.9796 144.558 26.0836 144.531 25.9021C144.505 25.7206 144.531 24.9715 144.531 24.9715H140C140 24.9715 139.973 25.8509 140 26.0572C140.027 26.2635 140.13 26.0572 140.156 26.2123C140.183 26.3674 140.13 26.8327 140.156 26.9878C140.183 27.1429 140.286 27.039 140.312 27.1429C140.339 27.2468 140.261 27.4531 140.312 27.6082C140.364 27.7633 140.573 27.9448 140.625 28.0735C140.677 28.2023 140.598 28.3062 140.625 28.3837C140.652 28.4613 140.755 28.4876 140.781 28.5388C140.808 28.59 140.73 28.6164 140.781 28.6939C140.833 28.7715 141.042 28.9266 141.094 29.0041C141.145 29.0817 141.042 29.0817 141.094 29.1592C141.145 29.2368 141.355 29.3919 141.406 29.4694C141.458 29.547 141.277 29.4694 141.406 29.6245C141.536 29.7796 142.031 30.2713 142.187 30.4001C142.344 30.5288 142.239 30.3225 142.344 30.4001C142.448 30.4776 142.708 30.7878 142.812 30.8654C142.917 30.9429 142.708 30.7366 142.969 30.8654C143.23 30.9941 144.089 31.5121 144.375 31.6409C144.661 31.7696 144.609 31.6145 144.687 31.6409C144.766 31.6672 144.766 31.7696 144.844 31.796C144.922 31.8223 145.078 31.7696 145.156 31.796C145.234 31.8223 145.183 31.9247 145.312 31.9511C145.442 31.9774 145.808 31.9247 145.937 31.9511C146.067 31.9774 145.964 32.0798 146.094 32.1062C146.223 32.1325 146.589 32.0798 146.719 32.1062C146.848 32.1325 146.667 32.2349 146.875 32.2613C147.083 32.2876 147.761 32.2349 147.969 32.2613C148.177 32.2876 147.448 32.39 148.125 32.4164C148.802 32.4428 151.355 32.4428 152.031 32.4164C152.708 32.39 151.98 32.2876 152.187 32.2613C152.395 32.2349 153.073 32.2876 153.281 32.2613C153.489 32.2349 153.281 32.1325 153.437 32.1062C153.594 32.0798 154.062 32.1325 154.219 32.1062C154.375 32.0798 154.27 31.9774 154.375 31.9511C154.48 31.9247 154.739 31.9774 154.844 31.9511C154.948 31.9247 154.922 31.8223 155 31.796C155.078 31.7696 155.234 31.8223 155.312 31.796C155.391 31.7696 155.312 31.6921 155.469 31.6409C155.625 31.5897 156.094 31.537 156.25 31.4858C156.406 31.4346 156.25 31.4082 156.406 31.3307C156.562 31.2531 156.98 31.1492 157.187 31.0205C157.395 30.8917 157.552 30.6327 157.656 30.5552C157.761 30.4776 157.63 30.7103 157.812 30.5552C157.995 30.4001 158.594 29.806 158.75 29.6245C158.906 29.4431 158.698 29.547 158.75 29.4694C158.802 29.3919 159.011 29.2368 159.062 29.1592C159.114 29.0817 159.011 29.1081 159.062 29.0041C159.114 28.9002 159.323 28.6676 159.375 28.5388C159.427 28.4101 159.348 28.3062 159.375 28.2286C159.402 28.1511 159.505 28.1511 159.531 28.0735C159.558 27.996 159.505 27.8409 159.531 27.7633C159.558 27.6858 159.661 27.737 159.687 27.6082C159.714 27.4795 159.661 27.1165 159.687 26.9878C159.714 26.8591 159.817 27.2468 159.844 26.8327C159.87 26.4186 159.87 24.9203 159.844 24.5062C159.817 24.0921 159.714 24.4798 159.687 24.3511C159.661 24.2223 159.714 23.8594 159.687 23.7307C159.661 23.6019 159.558 23.6531 159.531 23.5756C159.505 23.498 159.558 23.3429 159.531 23.2654C159.505 23.1878 159.402 23.1614 159.375 23.1103C159.348 23.0591 159.402 23.0063 159.375 22.9552C159.348 22.904 159.245 22.8776 159.219 22.8001C159.192 22.7225 159.27 22.5938 159.219 22.4899C159.167 22.3859 158.958 22.2572 158.906 22.1796C158.855 22.1021 159.011 22.1533 158.906 22.0245C158.802 21.8958 158.386 21.5329 158.281 21.4041C158.177 21.2754 158.308 21.3002 158.281 21.249C158.255 21.1979 158.177 21.1203 158.125 21.0939C158.073 21.0676 158.098 21.1979 157.969 21.0939C157.839 20.99 157.473 20.5774 157.344 20.4735C157.214 20.3696 157.266 20.5247 157.187 20.4735C157.109 20.4223 156.953 20.2145 156.875 20.1633C156.797 20.1121 156.875 20.2409 156.719 20.1633C156.562 20.0858 156.12 19.7756 155.937 19.698C155.755 19.6205 155.703 19.7244 155.625 19.698C155.547 19.6716 155.547 19.5693 155.469 19.5429C155.391 19.5165 155.234 19.5693 155.156 19.5429C155.078 19.5165 155.078 19.4142 155 19.3878C154.922 19.3614 154.766 19.4142 154.687 19.3878C154.609 19.3614 154.609 19.2591 154.531 19.2327C154.453 19.2063 154.297 19.2591 154.219 19.2327C154.141 19.2063 154.167 19.104 154.062 19.0776C153.958 19.0512 153.698 19.104 153.594 19.0776C153.489 19.0512 153.542 18.9489 153.437 18.9225C153.333 18.8961 153.073 18.9489 152.969 18.9225C152.864 18.8961 152.942 18.7938 152.812 18.7674C152.683 18.741 152.317 18.7938 152.187 18.7674C152.058 18.741 152.161 18.6387 152.031 18.6123C151.902 18.5859 151.536 18.6387 151.406 18.6123C151.277 18.5859 151.355 18.4836 151.25 18.4572C151.145 18.4308 150.886 18.4836 150.781 18.4572C150.677 18.4308 150.755 18.3285 150.625 18.3021C150.495 18.2757 150.13 18.3285 150 18.3021C149.87 18.2757 149.948 18.1734 149.844 18.147C149.739 18.1206 149.48 18.1734 149.375 18.147C149.27 18.1206 149.297 18.0183 149.219 17.9919C149.141 17.9655 148.984 18.0183 148.906 17.9919C148.828 17.9655 148.828 17.8632 148.75 17.8368C148.672 17.8104 148.516 17.8632 148.437 17.8368C148.359 17.8104 148.437 17.7329 148.281 17.6817C148.125 17.6305 147.656 17.5778 147.5 17.5266C147.344 17.4754 147.5 17.449 147.344 17.3715C147.187 17.2939 146.848 17.2676 146.562 17.0613C146.277 16.855 145.781 16.3121 145.625 16.1307C145.469 15.9492 145.652 16.0268 145.625 15.9756C145.598 15.9244 145.495 15.898 145.469 15.8205C145.442 15.7429 145.495 15.5878 145.469 15.5103C145.442 15.4327 145.339 15.4839 145.312 15.3552C145.286 15.2264 145.286 14.8635 145.312 14.7348C145.339 14.606 145.442 14.6836 145.469 14.5796C145.495 14.4757 145.442 14.2183 145.469 14.1143C145.495 14.0104 145.598 14.0104 145.625 13.9592C145.652 13.9081 145.469 13.9856 145.625 13.8041C145.781 13.6227 146.38 13.0286 146.562 12.8735C146.745 12.7184 146.614 12.9247 146.719 12.8735C146.823 12.8223 147.058 12.6145 147.187 12.5633C147.317 12.5121 147.422 12.5897 147.5 12.5633C147.578 12.537 147.527 12.4346 147.656 12.4082C147.786 12.3819 148.152 12.4346 148.281 12.4082C148.411 12.3819 147.891 12.2795 148.437 12.2531C148.984 12.2268 151.016 12.2268 151.562 12.2531C152.109 12.2795 151.589 12.3819 151.719 12.4082C151.848 12.4346 152.214 12.3819 152.344 12.4082C152.473 12.4346 152.422 12.537 152.5 12.5633C152.578 12.5897 152.734 12.537 152.812 12.5633C152.891 12.5897 152.864 12.6672 152.969 12.7184C153.073 12.7696 153.177 12.6672 153.437 12.8735C153.698 13.0798 154.348 13.753 154.531 13.9592C154.714 14.1655 154.48 14.0104 154.531 14.1143C154.583 14.2183 154.792 14.4509 154.844 14.5796C154.895 14.7084 154.817 14.8123 154.844 14.8899C154.87 14.9674 154.973 14.8635 155 15.045C155.027 15.2264 155 15.9756 155 15.9756H159.375C159.375 15.9756 159.402 15.0961 159.375 14.8899C159.348 14.6836 159.245 14.8899 159.219 14.7348C159.192 14.5796 159.245 14.1143 159.219 13.9592C159.192 13.8041 159.089 13.9081 159.062 13.8041C159.036 13.7002 159.114 13.4939 159.062 13.3388C159.011 13.1837 158.802 13.0023 158.75 12.8735C158.698 12.7448 158.777 12.6409 158.75 12.5633C158.723 12.4858 158.62 12.4594 158.594 12.4082C158.567 12.357 158.723 12.4346 158.594 12.2531C158.464 12.0716 157.942 11.504 157.812 11.3225C157.683 11.141 158.047 11.3737 157.812 11.1674C157.578 10.9611 156.667 10.2632 156.406 10.0817C156.145 9.90022 156.355 10.1329 156.25 10.0817C156.145 10.0305 155.989 9.84904 155.781 9.77148C155.573 9.69393 155.156 9.66757 155 9.61638C154.844 9.5652 154.948 9.48765 154.844 9.46128C154.739 9.43491 154.48 9.48765 154.375 9.46128C154.27 9.43491 154.323 9.33255 154.219 9.30618C154.114 9.27981 153.855 9.33255 153.75 9.30618C153.645 9.27981 153.777 9.17744 153.594 9.15108C153.411 9.12471 152.839 9.17744 152.656 9.15108C152.473 9.12471 153.359 9.02234 152.5 8.99597C151.641 8.96961 148.359 8.96961 147.5 8.99597C146.641 9.02234 147.527 9.12471 147.344 9.15108C147.161 9.17744 146.589 9.12471 146.406 9.15108C146.223 9.17744 146.38 9.27981 146.25 9.30618C146.12 9.33255 145.755 9.27981 145.625 9.30618C145.495 9.33255 145.547 9.43491 145.469 9.46128C145.391 9.48765 145.234 9.43491 145.156 9.46128C145.078 9.48765 145.156 9.5652 145 9.61638C144.844 9.66757 144.375 9.7203 144.219 9.77148C144.062 9.82267 144.219 9.84904 144.062 9.92659C143.906 10.0041 143.464 10.1329 143.281 10.2368ZM109.375 10.2368C109.192 10.3407 109.141 10.4958 109.062 10.547C108.984 10.5982 109.141 10.3407 108.906 10.547C108.672 10.7533 107.864 11.5552 107.656 11.7878C107.448 12.0205 107.761 11.7366 107.656 11.9429C107.552 12.1492 107.136 12.796 107.031 13.0286C106.927 13.2613 107.058 13.2613 107.031 13.3388C107.005 13.4164 106.902 13.3652 106.875 13.4939C106.848 13.6227 106.902 13.9856 106.875 14.1143C106.848 14.2431 106.745 13.8553 106.719 14.2694C106.692 14.6836 106.692 16.1819 106.719 16.596C106.745 17.0101 106.848 16.6223 106.875 16.7511C106.902 16.8798 106.848 17.2428 106.875 17.3715C106.902 17.5002 107.005 17.449 107.031 17.5266C107.058 17.6041 107.005 17.7592 107.031 17.8368C107.058 17.9143 107.109 17.8368 107.187 17.9919C107.266 18.147 107.266 18.4308 107.5 18.7674C107.734 19.104 108.386 19.8019 108.594 20.0082C108.802 20.2145 108.645 19.9307 108.75 20.0082C108.855 20.0858 109.114 20.396 109.219 20.4735C109.323 20.5511 109.297 20.4223 109.375 20.4735C109.453 20.5247 109.609 20.7325 109.687 20.7837C109.766 20.8349 109.739 20.7325 109.844 20.7837C109.948 20.8349 110.183 21.0428 110.312 21.0939C110.442 21.1451 110.495 21.0428 110.625 21.0939C110.755 21.1451 110.964 21.353 111.094 21.4041C111.223 21.4553 111.328 21.3778 111.406 21.4041C111.484 21.4305 111.484 21.5329 111.562 21.5592C111.641 21.5856 111.797 21.5329 111.875 21.5592C111.953 21.5856 111.927 21.688 112.031 21.7143C112.136 21.7407 112.395 21.688 112.5 21.7143C112.605 21.7407 112.578 21.8431 112.656 21.8694C112.734 21.8958 112.891 21.8431 112.969 21.8694C113.047 21.8958 113.02 21.9982 113.125 22.0245C113.23 22.0509 113.489 21.9982 113.594 22.0245C113.698 22.0509 113.645 22.1533 113.75 22.1796C113.855 22.206 114.114 22.1533 114.219 22.1796C114.323 22.206 114.27 22.3084 114.375 22.3348C114.48 22.3611 114.739 22.3084 114.844 22.3348C114.948 22.3611 114.895 22.4635 115 22.4899C115.105 22.5162 115.364 22.4635 115.469 22.4899C115.573 22.5162 115.52 22.6186 115.625 22.645C115.73 22.6713 115.989 22.6186 116.094 22.645C116.198 22.6713 116.145 22.7737 116.25 22.8001C116.355 22.8264 116.614 22.7737 116.719 22.8001C116.823 22.8264 116.77 22.9288 116.875 22.9552C116.98 22.9815 117.239 22.9288 117.344 22.9552C117.448 22.9815 117.422 23.0839 117.5 23.1103C117.578 23.1366 117.734 23.0839 117.812 23.1103C117.891 23.1366 117.864 23.239 117.969 23.2654C118.073 23.2917 118.333 23.239 118.437 23.2654C118.542 23.2917 118.386 23.3165 118.594 23.4205C118.802 23.5244 119.453 23.757 119.687 23.8858C119.922 24.0145 119.922 24.1448 120 24.196C120.078 24.2472 120 24.0409 120.156 24.196C120.312 24.3511 120.808 24.9203 120.937 25.1266C121.067 25.3329 120.911 25.3592 120.937 25.4368C120.964 25.5143 121.067 25.3856 121.094 25.5919C121.12 25.7982 121.12 26.4713 121.094 26.6776C121.067 26.8839 120.964 26.7552 120.937 26.8327C120.911 26.9103 120.964 27.0654 120.937 27.1429C120.911 27.2205 120.808 27.2468 120.781 27.298C120.755 27.3492 120.911 27.298 120.781 27.4531C120.652 27.6082 120.156 28.0999 120 28.2286C119.844 28.3574 119.973 28.1511 119.844 28.2286C119.714 28.3062 119.375 28.6164 119.219 28.6939C119.062 28.7715 118.984 28.6676 118.906 28.6939C118.828 28.7203 118.88 28.8227 118.75 28.849C118.62 28.8754 118.255 28.8227 118.125 28.849C117.995 28.8754 118.542 28.9778 117.969 29.0041C117.395 29.0305 115.261 29.0305 114.687 29.0041C114.114 28.9778 114.661 28.8754 114.531 28.849C114.402 28.8227 114.036 28.8754 113.906 28.849C113.777 28.8227 113.906 28.7451 113.75 28.6939C113.594 28.6427 113.125 28.59 112.969 28.5388C112.812 28.4876 112.917 28.4349 112.812 28.3837C112.708 28.3325 112.473 28.3062 112.344 28.2286C112.214 28.1511 112.109 27.9696 112.031 27.9184C111.953 27.8672 112.058 28.0999 111.875 27.9184C111.692 27.737 111.094 27.0654 110.937 26.8327C110.781 26.6001 110.964 26.6001 110.937 26.5225C110.911 26.445 110.808 26.445 110.781 26.3674C110.755 26.2899 110.808 26.1348 110.781 26.0572C110.755 25.9796 110.652 26.0572 110.625 25.9021C110.598 25.747 110.652 25.2817 110.625 25.1266C110.598 24.9715 111.223 24.9979 110.469 24.9715C109.714 24.9451 106.094 24.9715 106.094 24.9715C106.094 24.9715 106.067 25.9796 106.094 26.2123C106.12 26.445 106.223 26.2387 106.25 26.3674C106.277 26.4961 106.223 26.8591 106.25 26.9878C106.277 27.1165 106.38 27.039 106.406 27.1429C106.433 27.2468 106.355 27.4531 106.406 27.6082C106.458 27.7633 106.667 27.9448 106.719 28.0735C106.77 28.2023 106.692 28.3062 106.719 28.3837C106.745 28.4613 106.848 28.4876 106.875 28.5388C106.902 28.59 106.823 28.6164 106.875 28.6939C106.927 28.7715 107.136 28.9266 107.187 29.0041C107.239 29.0817 107.136 29.0817 107.187 29.1592C107.239 29.2368 107.448 29.3919 107.5 29.4694C107.552 29.547 107.37 29.4694 107.5 29.6245C107.63 29.7796 108.125 30.2713 108.281 30.4001C108.437 30.5288 108.333 30.3225 108.437 30.4001C108.542 30.4776 108.802 30.7878 108.906 30.8654C109.011 30.9429 108.802 30.7366 109.062 30.8654C109.323 30.9941 110.183 31.5121 110.469 31.6409C110.755 31.7696 110.703 31.6145 110.781 31.6409C110.859 31.6672 110.859 31.7696 110.937 31.796C111.016 31.8223 111.172 31.7696 111.25 31.796C111.328 31.8223 111.277 31.9247 111.406 31.9511C111.536 31.9774 111.902 31.9247 112.031 31.9511C112.161 31.9774 112.058 32.0798 112.187 32.1062C112.317 32.1325 112.683 32.0798 112.812 32.1062C112.942 32.1325 112.761 32.2349 112.969 32.2613C113.177 32.2876 113.855 32.2349 114.062 32.2613C114.27 32.2876 113.542 32.39 114.219 32.4164C114.895 32.4428 117.448 32.4428 118.125 32.4164C118.802 32.39 118.073 32.2876 118.281 32.2613C118.489 32.2349 119.167 32.2876 119.375 32.2613C119.583 32.2349 119.375 32.1325 119.531 32.1062C119.687 32.0798 120.156 32.1325 120.312 32.1062C120.469 32.0798 120.364 31.9774 120.469 31.9511C120.573 31.9247 120.833 31.9774 120.937 31.9511C121.042 31.9247 121.016 31.8223 121.094 31.796C121.172 31.7696 121.328 31.8223 121.406 31.796C121.484 31.7696 121.406 31.6921 121.562 31.6409C121.719 31.5897 122.187 31.537 122.344 31.4858C122.5 31.4346 122.344 31.4082 122.5 31.3307C122.656 31.2531 123.073 31.1492 123.281 31.0205C123.489 30.8917 123.645 30.6327 123.75 30.5552C123.855 30.4776 123.75 30.6839 123.906 30.5552C124.062 30.4264 124.558 29.9347 124.687 29.7796C124.817 29.6245 124.609 29.7285 124.687 29.6245C124.766 29.5206 125.078 29.2632 125.156 29.1592C125.234 29.0553 125.105 29.1081 125.156 29.0041C125.208 28.9002 125.391 28.7451 125.469 28.5388C125.547 28.3325 125.573 27.9184 125.625 27.7633C125.677 27.6082 125.755 27.7633 125.781 27.6082C125.808 27.4531 125.755 26.9878 125.781 26.8327C125.808 26.6776 125.911 27.039 125.937 26.6776C125.964 26.3162 125.964 25.0227 125.937 24.6613C125.911 24.2999 125.808 24.6349 125.781 24.5062C125.755 24.3774 125.808 24.0145 125.781 23.8858C125.755 23.757 125.652 23.8346 125.625 23.7307C125.598 23.6268 125.652 23.3693 125.625 23.2654C125.598 23.1614 125.573 23.3165 125.469 23.1103C125.364 22.904 125.183 22.3084 125 22.0245C124.817 21.7407 124.48 21.5329 124.375 21.4041C124.27 21.2754 124.402 21.3002 124.375 21.249C124.348 21.1979 124.27 21.1203 124.219 21.0939C124.167 21.0676 124.192 21.1979 124.062 21.0939C123.933 20.99 123.567 20.5774 123.437 20.4735C123.308 20.3696 123.359 20.5247 123.281 20.4735C123.203 20.4223 123.047 20.2145 122.969 20.1633C122.891 20.1121 122.969 20.2409 122.812 20.1633C122.656 20.0858 122.214 19.7756 122.031 19.698C121.848 19.6205 121.797 19.7244 121.719 19.698C121.641 19.6716 121.641 19.5693 121.562 19.5429C121.484 19.5165 121.328 19.5693 121.25 19.5429C121.172 19.5165 121.172 19.4142 121.094 19.3878C121.016 19.3614 120.859 19.4142 120.781 19.3878C120.703 19.3614 120.73 19.2591 120.625 19.2327C120.52 19.2063 120.261 19.2591 120.156 19.2327C120.052 19.2063 120.078 19.104 120 19.0776C119.922 19.0512 119.766 19.104 119.687 19.0776C119.609 19.0512 119.636 18.9489 119.531 18.9225C119.427 18.8961 119.167 18.9489 119.062 18.9225C118.958 18.8961 119.036 18.7938 118.906 18.7674C118.777 18.741 118.411 18.7938 118.281 18.7674C118.152 18.741 118.255 18.6387 118.125 18.6123C117.995 18.5859 117.63 18.6387 117.5 18.6123C117.37 18.5859 117.448 18.4836 117.344 18.4572C117.239 18.4308 116.98 18.4836 116.875 18.4572C116.77 18.4308 116.848 18.3285 116.719 18.3021C116.589 18.2757 116.223 18.3285 116.094 18.3021C115.964 18.2757 116.042 18.1734 115.937 18.147C115.833 18.1206 115.573 18.1734 115.469 18.147C115.364 18.1206 115.391 18.0183 115.312 17.9919C115.234 17.9655 115.078 18.0183 115 17.9919C114.922 17.9655 114.922 17.8632 114.844 17.8368C114.766 17.8104 114.609 17.8632 114.531 17.8368C114.453 17.8104 114.531 17.7329 114.375 17.6817C114.219 17.6305 113.75 17.5778 113.594 17.5266C113.437 17.4754 113.594 17.449 113.437 17.3715C113.281 17.2939 112.942 17.2676 112.656 17.0613C112.37 16.855 111.875 16.3121 111.719 16.1307C111.562 15.9492 111.745 16.0268 111.719 15.9756C111.692 15.9244 111.589 15.898 111.562 15.8205C111.536 15.7429 111.589 15.5878 111.562 15.5103C111.536 15.4327 111.433 15.5103 111.406 15.3552C111.38 15.2001 111.38 14.7348 111.406 14.5796C111.433 14.4245 111.536 14.5021 111.562 14.4245C111.589 14.347 111.536 14.1919 111.562 14.1143C111.589 14.0368 111.692 14.0104 111.719 13.9592C111.745 13.9081 111.562 13.9856 111.719 13.8041C111.875 13.6227 112.473 13.0286 112.656 12.8735C112.839 12.7184 112.708 12.9247 112.812 12.8735C112.917 12.8223 113.152 12.6145 113.281 12.5633C113.411 12.5121 113.516 12.5897 113.594 12.5633C113.672 12.537 113.62 12.4346 113.75 12.4082C113.88 12.3819 114.245 12.4346 114.375 12.4082C114.505 12.3819 113.984 12.2795 114.531 12.2531C115.078 12.2268 117.109 12.2268 117.656 12.2531C118.203 12.2795 117.683 12.3819 117.812 12.4082C117.942 12.4346 118.308 12.3819 118.437 12.4082C118.567 12.4346 118.516 12.537 118.594 12.5633C118.672 12.5897 118.828 12.537 118.906 12.5633C118.984 12.5897 118.958 12.6672 119.062 12.7184C119.167 12.7696 119.27 12.6672 119.531 12.8735C119.792 13.0798 120.442 13.753 120.625 13.9592C120.808 14.1655 120.573 14.0104 120.625 14.1143C120.677 14.2183 120.886 14.4509 120.937 14.5796C120.989 14.7084 120.911 14.8123 120.937 14.8899C120.964 14.9674 121.067 14.8635 121.094 15.045C121.12 15.2264 121.094 15.9756 121.094 15.9756H125.469C125.469 15.9756 125.495 15.0961 125.469 14.8899C125.442 14.6836 125.339 14.8899 125.312 14.7348C125.286 14.5796 125.339 14.1143 125.312 13.9592C125.286 13.8041 125.183 13.8817 125.156 13.8041C125.13 13.7266 125.183 13.5715 125.156 13.4939C125.13 13.4164 125.027 13.4164 125 13.3388C124.973 13.2613 125.027 13.1062 125 13.0286C124.973 12.9511 124.87 12.9511 124.844 12.8735C124.817 12.796 124.87 12.6409 124.844 12.5633C124.817 12.4858 124.714 12.4594 124.687 12.4082C124.661 12.357 124.817 12.4346 124.687 12.2531C124.558 12.0716 124.036 11.504 123.906 11.3225C123.777 11.141 124.141 11.3737 123.906 11.1674C123.672 10.9611 122.761 10.2632 122.5 10.0817C122.239 9.90022 122.395 10.1081 122.344 10.0817C122.292 10.0553 122.266 9.95295 122.187 9.92659C122.109 9.90022 121.953 9.95295 121.875 9.92659C121.797 9.90022 121.77 9.79785 121.719 9.77148C121.667 9.74512 121.614 9.79785 121.562 9.77148C121.511 9.74512 121.484 9.64275 121.406 9.61638C121.328 9.59002 121.172 9.64275 121.094 9.61638C121.016 9.59002 121.042 9.48765 120.937 9.46128C120.833 9.43491 120.573 9.48765 120.469 9.46128C120.364 9.43491 120.417 9.33255 120.312 9.30618C120.208 9.27981 119.948 9.33255 119.844 9.30618C119.739 9.27981 119.87 9.17744 119.687 9.15108C119.505 9.12471 118.933 9.17744 118.75 9.15108C118.567 9.12471 119.453 9.02234 118.594 8.99597C117.734 8.96961 114.453 8.96961 113.594 8.99597C112.734 9.02234 113.62 9.12471 113.437 9.15108C113.255 9.17744 112.683 9.12471 112.5 9.15108C112.317 9.17744 112.473 9.27981 112.344 9.30618C112.214 9.33255 111.848 9.27981 111.719 9.30618C111.589 9.33255 111.641 9.43491 111.562 9.46128C111.484 9.48765 111.328 9.43491 111.25 9.46128C111.172 9.48765 111.25 9.5652 111.094 9.61638C110.937 9.66757 110.469 9.7203 110.312 9.77148C110.156 9.82267 110.312 9.84904 110.156 9.92659C110 10.0041 109.558 10.1329 109.375 10.2368Z" fill="#9E77ED"/>
<path fill-rule="evenodd" clip-rule="evenodd" d="M90.3125 9.15102C90.0516 9.17739 90.2609 9.27975 90.1562 9.30612C90.0516 9.33249 89.7922 9.27975 89.6875 9.30612C89.5828 9.33249 89.6359 9.43486 89.5312 9.46122C89.4266 9.48759 89.1672 9.43486 89.0625 9.46122C88.9578 9.48759 89.0625 9.56514 88.9062 9.61633C88.75 9.66751 88.2812 9.72024 88.125 9.77143C87.9688 9.82261 88.0203 9.90016 87.9688 9.92653C87.9172 9.9529 87.8641 9.90016 87.8125 9.92653C87.7609 9.9529 87.7078 10.0553 87.6562 10.0816C87.6047 10.108 87.5516 10.0553 87.5 10.0816C87.4484 10.108 87.5516 10.1328 87.3438 10.2367C87.1359 10.3407 86.4844 10.5733 86.25 10.702C86.0156 10.8308 86.0156 10.9611 85.9375 11.0122C85.8594 11.0634 85.8594 10.9611 85.7812 11.0122C85.7031 11.0634 85.5469 11.2713 85.4688 11.3224C85.3906 11.3736 85.7031 10.9611 85.3125 11.3224C84.9219 11.6838 83.4891 13.1061 83.125 13.4939C82.7609 13.8816 83.2297 13.4939 83.125 13.649C83.0203 13.8041 82.6562 14.1655 82.5 14.4245C82.3438 14.6835 82.2922 15.0185 82.1875 15.2C82.0828 15.3815 81.9266 15.4063 81.875 15.5102C81.8234 15.6141 81.9266 15.6917 81.875 15.8204C81.8234 15.9491 81.6141 16.157 81.5625 16.2857C81.5109 16.4144 81.5891 16.5184 81.5625 16.5959C81.5359 16.6735 81.4328 16.6735 81.4062 16.751C81.3797 16.8286 81.4328 16.9837 81.4062 17.0612C81.3797 17.1388 81.2766 17.1388 81.25 17.2163C81.2234 17.2939 81.2766 17.449 81.25 17.5265C81.2234 17.6041 81.1203 17.5529 81.0938 17.6816C81.0672 17.8104 81.1203 18.1733 81.0938 18.302C81.0672 18.4308 80.9641 18.2245 80.9375 18.4571C80.9109 18.6898 80.9641 19.4653 80.9375 19.698C80.9109 19.9306 80.8078 19.6204 80.7812 19.8531C80.7547 20.0857 80.7547 20.8612 80.7812 21.0939C80.8078 21.3265 80.9109 21.0427 80.9375 21.249C80.9641 21.4553 80.9109 22.1284 80.9375 22.3347C80.9641 22.541 81.0672 22.3611 81.0938 22.4898C81.1203 22.6185 81.0672 22.9815 81.0938 23.1102C81.1203 23.2389 81.2234 23.1614 81.25 23.2653C81.2766 23.3692 81.2234 23.6267 81.25 23.7306C81.2766 23.8345 81.3797 23.8082 81.4062 23.8857C81.4328 23.9633 81.3547 24.0672 81.4062 24.1959C81.4578 24.3247 81.6672 24.5325 81.7188 24.6612C81.7703 24.79 81.6922 24.8939 81.7188 24.9714C81.7453 25.049 81.7703 24.9202 81.875 25.1265C81.9797 25.3328 82.2141 25.9796 82.3438 26.2122C82.4734 26.4449 82.6047 26.4449 82.6562 26.5224C82.7078 26.6 82.6047 26.6 82.6562 26.6775C82.7078 26.7551 82.9172 26.9102 82.9688 26.9878C83.0203 27.0653 82.8906 27.0389 82.9688 27.1429C83.0469 27.2468 83.3594 27.5042 83.4375 27.6082C83.5156 27.7121 83.1766 27.4794 83.4375 27.7633C83.6984 28.0471 84.7141 29.0553 85 29.3143C85.2859 29.5733 85.0516 29.2367 85.1562 29.3143C85.2609 29.3918 85.5203 29.702 85.625 29.7796C85.7297 29.8571 85.7031 29.7284 85.7812 29.7796C85.8594 29.8308 85.9641 30.0122 86.0938 30.0898C86.2234 30.1673 86.4328 30.1673 86.5625 30.2449C86.6922 30.3224 86.7969 30.5039 86.875 30.5551C86.9531 30.6063 86.9266 30.5039 87.0312 30.5551C87.1359 30.6063 87.3703 30.8141 87.5 30.8653C87.6297 30.9165 87.6828 30.8141 87.8125 30.8653C87.9422 30.9165 88.1516 31.1243 88.2812 31.1755C88.4109 31.2267 88.5156 31.1491 88.5938 31.1755C88.6719 31.2019 88.6719 31.3042 88.75 31.3306C88.8281 31.357 88.9844 31.3042 89.0625 31.3306C89.1406 31.357 89.1141 31.4593 89.2188 31.4857C89.3234 31.5121 89.5828 31.4593 89.6875 31.4857C89.7922 31.5121 89.6875 31.6144 89.8438 31.6408C90 31.6672 90.4688 31.6144 90.625 31.6408C90.7812 31.6672 90.2609 31.7695 90.7812 31.7959C91.3016 31.8223 93.2297 31.8223 93.75 31.7959C94.2703 31.7695 93.75 31.6672 93.9062 31.6408C94.0625 31.6144 94.5312 31.6672 94.6875 31.6408C94.8438 31.6144 94.7391 31.5121 94.8438 31.4857C94.9484 31.4593 95.2078 31.5121 95.3125 31.4857C95.4172 31.4593 95.3906 31.357 95.4688 31.3306C95.5469 31.3042 95.7031 31.357 95.7812 31.3306C95.8594 31.3042 95.7812 31.2267 95.9375 31.1755C96.0938 31.1243 96.5625 31.0716 96.7188 31.0204C96.875 30.9692 96.6672 30.9692 96.875 30.8653C97.0828 30.7614 97.7344 30.5287 97.9688 30.4C98.2031 30.2713 98.2031 30.141 98.2812 30.0898C98.3594 30.0386 98.3594 30.141 98.4375 30.0898C98.5156 30.0386 98.6719 29.8308 98.75 29.7796C98.8281 29.7284 98.8281 29.8308 98.9062 29.7796C98.9844 29.7284 99.1406 29.5206 99.2188 29.4694C99.2969 29.4182 99.0359 29.7796 99.375 29.4694C99.7141 29.1592 100.938 27.9447 101.25 27.6082C101.562 27.2716 101.12 27.6345 101.25 27.4531C101.38 27.2716 101.902 26.7039 102.031 26.5224C102.161 26.341 101.953 26.4961 102.031 26.3673C102.109 26.2386 102.422 25.8757 102.5 25.7469C102.578 25.6182 102.473 25.643 102.5 25.5918C102.527 25.5407 102.63 25.5143 102.656 25.4367C102.683 25.3592 102.578 25.308 102.656 25.1265C102.734 24.9451 103.047 24.5325 103.125 24.351C103.203 24.1695 103.098 24.1184 103.125 24.0408C103.152 23.9633 103.255 23.9896 103.281 23.8857C103.308 23.7818 103.255 23.5243 103.281 23.4204C103.308 23.3165 103.411 23.3692 103.438 23.2653C103.464 23.1614 103.411 22.9039 103.438 22.8C103.464 22.6961 103.567 22.8264 103.594 22.6449C103.62 22.4634 103.567 21.8958 103.594 21.7143C103.62 21.5328 103.723 21.9733 103.75 21.5592C103.777 21.1451 103.777 19.6468 103.75 19.2327C103.723 18.8185 103.62 19.2327 103.594 19.0775C103.567 18.9224 103.62 18.4571 103.594 18.302C103.567 18.1469 103.464 18.2509 103.438 18.1469C103.411 18.043 103.464 17.7855 103.438 17.6816C103.411 17.5777 103.308 17.6304 103.281 17.5265C103.255 17.4226 103.308 17.1651 103.281 17.0612C103.255 16.9573 103.152 16.9837 103.125 16.9061C103.098 16.8286 103.177 16.7247 103.125 16.5959C103.073 16.4672 102.864 16.2593 102.812 16.1306C102.761 16.0019 102.839 15.898 102.812 15.8204C102.786 15.7429 102.761 15.8716 102.656 15.6653C102.552 15.459 102.317 14.8122 102.188 14.5796C102.058 14.3469 101.927 14.3469 101.875 14.2694C101.823 14.1918 101.927 14.1918 101.875 14.1143C101.823 14.0367 101.614 13.8816 101.562 13.8041C101.511 13.7265 101.667 13.7777 101.562 13.649C101.458 13.5202 101.042 13.1573 100.938 13.0286C100.833 12.8998 101.094 13.0549 100.938 12.8735C100.781 12.692 100.183 12.098 100 11.9429C99.8172 11.7878 100.078 12.1243 99.8438 11.9429C99.6094 11.7614 98.8281 11.0386 98.5938 10.8571C98.3594 10.6757 98.5672 10.9347 98.4375 10.8571C98.3078 10.7796 97.9422 10.4694 97.8125 10.3918C97.6828 10.3143 97.7609 10.443 97.6562 10.3918C97.5516 10.3407 97.3172 10.1328 97.1875 10.0816C97.0578 10.0304 97.0047 10.1328 96.875 10.0816C96.7453 10.0304 96.5359 9.82261 96.4062 9.77143C96.2766 9.72024 96.1719 9.7978 96.0938 9.77143C96.0156 9.74506 96.0156 9.64269 95.9375 9.61633C95.8594 9.58996 95.7031 9.64269 95.625 9.61633C95.5469 9.58996 95.5734 9.48759 95.4688 9.46122C95.3641 9.43486 95.1047 9.48759 95 9.46122C94.8953 9.43486 94.9484 9.33249 94.8438 9.30612C94.7391 9.27975 94.4797 9.33249 94.375 9.30612C94.2703 9.27975 94.4797 9.17739 94.2188 9.15102C93.9578 9.12465 93.0734 9.17739 92.8125 9.15102C92.5516 9.12465 92.8125 9.02229 92.6562 8.99592C92.5 8.96955 92.0312 8.96955 91.875 8.99592C91.7188 9.02229 91.9797 9.12465 91.7188 9.15102C91.4578 9.17739 90.5734 9.12465 90.3125 9.15102ZM90.625 12.7184C90.8328 12.692 91.5109 12.7447 91.7188 12.7184C91.9266 12.692 91.6922 12.5896 91.875 12.5633C92.0578 12.5369 92.6297 12.5369 92.8125 12.5633C92.9953 12.5896 92.7859 12.692 92.9688 12.7184C93.1516 12.7447 93.7234 12.692 93.9062 12.7184C94.0891 12.7447 93.9578 12.8471 94.0625 12.8735C94.1672 12.8998 94.4266 12.8471 94.5312 12.8735C94.6359 12.8998 94.6094 13.0022 94.6875 13.0286C94.7656 13.0549 94.9219 13.0022 95 13.0286C95.0781 13.0549 94.9484 13.0798 95.1562 13.1837C95.3641 13.2876 96.0156 13.5202 96.25 13.649C96.4844 13.7777 96.4844 13.908 96.5625 13.9592C96.6406 14.0104 96.6406 13.908 96.7188 13.9592C96.7969 14.0104 96.9531 14.2182 97.0312 14.2694C97.1094 14.3206 96.9531 14.0631 97.1875 14.2694C97.4219 14.4757 98.2297 15.2775 98.4375 15.5102C98.6453 15.7429 98.3594 15.5614 98.4375 15.6653C98.5156 15.7692 98.8016 15.9755 98.9062 16.1306C99.0109 16.2857 98.9844 16.4672 99.0625 16.5959C99.1406 16.7247 99.3234 16.8286 99.375 16.9061C99.4266 16.9837 99.3484 17.01 99.375 17.0612C99.4016 17.1124 99.5047 17.1388 99.5312 17.2163C99.5578 17.2939 99.5047 17.449 99.5312 17.5265C99.5578 17.6041 99.6609 17.6041 99.6875 17.6816C99.7141 17.7592 99.6609 17.9143 99.6875 17.9918C99.7141 18.0694 99.8172 18.0694 99.8438 18.1469C99.8703 18.2245 99.8172 18.3796 99.8438 18.4571C99.8703 18.5347 99.9734 18.4835 100 18.6122C100.027 18.741 99.9734 19.1039 100 19.2327C100.027 19.3614 100.13 19.0264 100.156 19.3878C100.183 19.7491 100.183 21.0427 100.156 21.4041C100.13 21.7655 100.027 21.4041 100 21.5592C99.9734 21.7143 100.027 22.1796 100 22.3347C99.9734 22.4898 99.8953 22.3347 99.8438 22.4898C99.7922 22.6449 99.7391 23.1102 99.6875 23.2653C99.6359 23.4204 99.6359 23.2141 99.5312 23.4204C99.4266 23.6267 99.1922 24.2735 99.0625 24.5061C98.9328 24.7388 98.8016 24.7388 98.75 24.8163C98.6984 24.8939 98.8797 24.8163 98.75 24.9714C98.6203 25.1265 98.0984 25.5918 97.9688 25.7469C97.8391 25.902 98.0203 25.8245 97.9688 25.902C97.9172 25.9796 97.7344 26.1611 97.6562 26.2122C97.5781 26.2634 97.6297 26.1083 97.5 26.2122C97.3703 26.3162 97.0047 26.7287 96.875 26.8327C96.7453 26.9366 96.7969 26.7815 96.7188 26.8327C96.6406 26.8838 96.4844 27.0917 96.4062 27.1429C96.3281 27.194 96.5109 27.0141 96.25 27.1429C95.9891 27.2716 95.1562 27.7896 94.8438 27.9184C94.5312 28.0471 94.4797 27.892 94.375 27.9184C94.2703 27.9447 94.3234 28.0471 94.2188 28.0735C94.1141 28.0998 93.8547 28.0471 93.75 28.0735C93.6453 28.0998 94.0625 28.2022 93.5938 28.2286C93.125 28.2549 91.4062 28.2549 90.9375 28.2286C90.4688 28.2022 90.8859 28.0998 90.7812 28.0735C90.6766 28.0471 90.4172 28.0998 90.3125 28.0735C90.2078 28.0471 90.3125 27.9695 90.1562 27.9184C90 27.8672 89.5312 27.8144 89.375 27.7633C89.2188 27.7121 89.4266 27.7121 89.2188 27.6082C89.0109 27.5042 88.3594 27.2716 88.125 27.1429C87.8906 27.0141 87.8906 26.8838 87.8125 26.8327C87.7344 26.7815 87.9688 27.1165 87.6562 26.8327C87.3438 26.5488 86.2234 25.4367 85.9375 25.1265C85.6516 24.8163 85.9891 25.049 85.9375 24.9714C85.8859 24.8939 85.6766 24.7388 85.625 24.6612C85.5734 24.5837 85.6766 24.5837 85.625 24.5061C85.5734 24.4286 85.3641 24.2735 85.3125 24.1959C85.2609 24.1184 85.3641 24.1447 85.3125 24.0408C85.2609 23.9369 85.0516 23.7042 85 23.5755C84.9484 23.4468 85.0266 23.3429 85 23.2653C84.9734 23.1878 84.8703 23.1878 84.8438 23.1102C84.8172 23.0327 84.8703 22.8776 84.8438 22.8C84.8172 22.7224 84.7141 22.7224 84.6875 22.6449C84.6609 22.5673 84.7141 22.4122 84.6875 22.3347C84.6609 22.2571 84.5578 22.3347 84.5312 22.1796C84.5047 22.0245 84.5578 21.5592 84.5312 21.4041C84.5047 21.249 84.4016 21.5328 84.375 21.249C84.3484 20.9651 84.3484 19.9818 84.375 19.698C84.4016 19.4141 84.5047 19.698 84.5312 19.5429C84.5578 19.3878 84.5047 18.9224 84.5312 18.7673C84.5578 18.6122 84.6609 18.7162 84.6875 18.6122C84.7141 18.5083 84.6609 18.2509 84.6875 18.1469C84.7141 18.043 84.8172 18.0694 84.8438 17.9918C84.8703 17.9143 84.8172 17.7592 84.8438 17.6816C84.8703 17.6041 84.8953 17.7328 85 17.5265C85.1047 17.3202 85.2609 16.7774 85.4688 16.4408C85.6766 16.1042 86.1203 15.6917 86.25 15.5102C86.3797 15.3287 86.0938 15.5366 86.25 15.3551C86.4062 15.1736 87.0047 14.5796 87.1875 14.4245C87.3703 14.2694 87.2391 14.502 87.3438 14.4245C87.4484 14.3469 87.7078 14.0367 87.8125 13.9592C87.9172 13.8816 87.8906 14.0104 87.9688 13.9592C88.0469 13.908 88.2031 13.7002 88.2812 13.649C88.3594 13.5978 88.2812 13.7265 88.4375 13.649C88.5938 13.5714 89.0359 13.2612 89.2188 13.1837C89.4016 13.1061 89.4531 13.21 89.5312 13.1837C89.6094 13.1573 89.6094 13.0549 89.6875 13.0286C89.7656 13.0022 89.9219 13.0549 90 13.0286C90.0781 13.0022 90.0781 12.8998 90.1562 12.8735C90.2344 12.8471 90.3906 12.8998 90.4688 12.8735C90.5469 12.8471 90.4172 12.7447 90.625 12.7184ZM63.75 8.99592C63.75 8.99592 63.5156 8.96955 63.4375 8.99592C63.3594 9.02229 63.5422 9.12465 63.2812 9.15102C63.0203 9.17739 62.1359 9.12465 61.875 9.15102C61.6141 9.17739 61.8484 9.27975 61.7188 9.30612C61.5891 9.33249 61.2234 9.27975 61.0938 9.30612C60.9641 9.33249 61.0422 9.43486 60.9375 9.46122C60.8328 9.48759 60.5734 9.43486 60.4688 9.46122C60.3641 9.48759 60.3906 9.58996 60.3125 9.61633C60.2344 9.64269 60.0781 9.58996 60 9.61633C59.9219 9.64269 60.0516 9.66751 59.8438 9.77143C59.6359 9.87535 59.0109 10.0816 58.75 10.2367C58.4891 10.3918 58.3859 10.6245 58.2812 10.702C58.1766 10.7796 58.2547 10.5981 58.125 10.702C57.9953 10.806 57.6297 11.2185 57.5 11.3224C57.3703 11.4264 57.4219 11.2713 57.3438 11.3224C57.2656 11.3736 57.0828 11.5551 57.0312 11.6327C56.9797 11.7102 57.1359 11.659 57.0312 11.7878C56.9266 11.9165 56.5359 12.2267 56.4062 12.4082C56.2766 12.5896 56.3281 12.7447 56.25 12.8735C56.1719 13.0022 56.0156 13.1325 55.9375 13.1837C55.8594 13.2349 55.8328 13.21 55.7812 13.1837C55.7297 13.1573 55.6516 13.1573 55.625 13.0286C55.5984 12.8998 55.6516 12.5369 55.625 12.4082C55.5984 12.2794 55.4953 12.4082 55.4688 12.2531C55.4422 12.098 55.4953 11.6327 55.4688 11.4776C55.4422 11.3224 55.3391 11.4512 55.3125 11.3224C55.2859 11.1937 55.3391 10.8308 55.3125 10.702C55.2859 10.5733 55.1828 10.6757 55.1562 10.5469C55.1297 10.4182 55.1828 10.0553 55.1562 9.92653C55.1297 9.7978 55.0266 9.87535 55 9.77143C54.9734 9.66751 55 9.30612 55 9.30612H51.0938C51.0938 9.30612 51.0672 10.8308 51.0938 11.1673C51.1203 11.5039 51.2234 10.9347 51.25 11.3224C51.2766 11.7102 51.2234 13.1061 51.25 13.4939C51.2766 13.8816 51.3797 10.5733 51.4062 13.649C51.4328 16.7247 51.3797 28.8753 51.4062 31.951C51.4328 35.0267 50.8078 32.0798 51.5625 32.1061C52.3172 32.1325 55.1828 32.1325 55.9375 32.1061C56.6922 32.0798 56.0672 34.2 56.0938 31.951C56.1203 29.702 56.0672 20.8612 56.0938 18.6122C56.1203 16.3633 56.2234 18.5347 56.25 18.4571C56.2766 18.3796 56.2234 18.2245 56.25 18.1469C56.2766 18.0694 56.3281 18.1469 56.4062 17.9918C56.4844 17.8367 56.6141 17.3978 56.7188 17.2163C56.8234 17.0349 56.9797 16.9837 57.0312 16.9061C57.0828 16.8286 56.9797 16.8286 57.0312 16.751C57.0828 16.6735 57.2922 16.5184 57.3438 16.4408C57.3953 16.3633 57.1094 16.5447 57.3438 16.2857C57.5781 16.0267 58.4891 15.1224 58.75 14.8898C59.0109 14.6571 58.75 14.9937 58.9062 14.8898C59.0625 14.7859 59.5312 14.3733 59.6875 14.2694C59.8438 14.1655 59.7391 14.3206 59.8438 14.2694C59.9484 14.2182 60.1047 14.0367 60.3125 13.9592C60.5203 13.8816 60.9375 13.8553 61.0938 13.8041C61.25 13.7529 61.1453 13.6753 61.25 13.649C61.3547 13.6226 61.6141 13.6753 61.7188 13.649C61.8234 13.6226 61.7188 13.5202 61.875 13.4939C62.0312 13.4675 62.5 13.5202 62.6562 13.4939C62.8125 13.4675 62.6297 13.3651 62.8125 13.3388C62.9953 13.3124 63.75 13.3388 63.75 13.3388V8.99592ZM68.75 2.79184C68.75 2.79184 68.7766 8.06531 68.75 9.15102C68.7234 10.2367 69.0625 9.27975 68.5938 9.30612C68.125 9.33249 65.9375 9.30612 65.9375 9.30612V12.8735C65.9375 12.8735 68.125 12.8471 68.5938 12.8735C69.0625 12.8998 68.7234 11.2185 68.75 13.0286C68.7766 14.8386 68.7234 21.9206 68.75 23.7306C68.7766 25.5407 68.8797 23.5243 68.9062 23.8857C68.9328 24.2471 68.8797 25.5407 68.9062 25.902C68.9328 26.2634 69.0359 25.902 69.0625 26.0571C69.0891 26.2122 69.0359 26.6775 69.0625 26.8327C69.0891 26.9878 69.1922 26.859 69.2188 26.9878C69.2453 27.1165 69.1922 27.4794 69.2188 27.6082C69.2453 27.7369 69.3484 27.6593 69.375 27.7633C69.4016 27.8672 69.3484 28.1247 69.375 28.2286C69.4016 28.3325 69.4531 28.2286 69.5312 28.3837C69.6094 28.5388 69.7391 28.9777 69.8438 29.1592C69.9484 29.3407 70.1047 29.3918 70.1562 29.4694C70.2078 29.5469 69.9734 29.4182 70.1562 29.6245C70.3391 29.8308 71.0422 30.5287 71.25 30.7102C71.4578 30.8917 71.3281 30.659 71.4062 30.7102C71.4844 30.7614 71.6406 30.9692 71.7188 31.0204C71.7969 31.0716 71.7188 30.9429 71.875 31.0204C72.0312 31.098 72.4734 31.4082 72.6562 31.4857C72.8391 31.5633 72.8906 31.4593 72.9688 31.4857C73.0469 31.5121 73.0203 31.6144 73.125 31.6408C73.2297 31.6672 73.4891 31.6144 73.5938 31.6408C73.6984 31.6672 73.6203 31.7695 73.75 31.7959C73.8797 31.8223 74.2453 31.7695 74.375 31.7959C74.5047 31.8223 74.1672 31.9247 74.5312 31.951C74.8953 31.9774 76.1984 31.9247 76.5625 31.951C76.9266 31.9774 76.3547 32.0798 76.7188 32.1061C77.0828 32.1325 78.3859 32.1325 78.75 32.1061C79.1141 32.0798 78.8797 32.649 78.9062 31.951C78.9328 31.2531 78.9062 27.9184 78.9062 27.9184C78.9062 27.9184 76.5891 27.9447 76.0938 27.9184C75.5984 27.892 76.0422 27.7896 75.9375 27.7633C75.8328 27.7369 75.6516 27.8408 75.4688 27.7633C75.2859 27.6857 74.9734 27.3755 74.8438 27.298C74.7141 27.2204 74.7656 27.3491 74.6875 27.298C74.6094 27.2468 74.4266 27.0653 74.375 26.9878C74.3234 26.9102 74.4266 26.9102 74.375 26.8327C74.3234 26.7551 74.1141 26.6 74.0625 26.5224C74.0109 26.4449 74.1141 26.4713 74.0625 26.3673C74.0109 26.2634 73.8016 26.0571 73.75 25.902C73.6984 25.7469 73.7766 25.5407 73.75 25.4367C73.7234 25.3328 73.6203 25.3855 73.5938 25.2816C73.5672 25.1777 73.6203 24.9202 73.5938 24.8163C73.5672 24.7124 73.4641 24.9202 73.4375 24.6612C73.4109 24.4022 73.4641 23.5243 73.4375 23.2653C73.4109 23.0063 73.3078 24.79 73.2812 23.1102C73.2547 21.4304 73.2297 14.8898 73.2812 13.1837C73.3328 11.4776 72.6828 12.9247 73.5938 12.8735C74.5047 12.8223 78.75 12.8735 78.75 12.8735V9.30612C78.75 9.30612 74.3484 9.33249 73.4375 9.30612C72.5266 9.27975 73.3078 10.3655 73.2812 9.15102C73.2547 7.93657 73.2812 2.01633 73.2812 2.01633C73.2812 2.01633 73.1766 1.98996 73.125 2.01633C73.0734 2.04269 73.125 2.14506 72.9688 2.17143C72.8125 2.1978 72.3438 2.14506 72.1875 2.17143C72.0312 2.1978 72.1875 2.30016 72.0312 2.32653C71.875 2.3529 71.4062 2.30016 71.25 2.32653C71.0938 2.3529 71.25 2.45527 71.0938 2.48163C70.9375 2.508 70.4688 2.45527 70.3125 2.48163C70.1562 2.508 70.3125 2.61037 70.1562 2.63673C70 2.6631 69.5312 2.61037 69.375 2.63673C69.2188 2.6631 69.3234 2.76547 69.2188 2.79184C69.1141 2.8182 68.75 2.79184 68.75 2.79184ZM0 1.70612V32.1061C0 32.1061 3.75 32.1325 4.53125 32.1061C5.3125 32.0798 4.66094 33.0879 4.6875 31.951C4.71406 30.8141 4.60938 26.4713 4.6875 25.2816C4.76562 24.092 5.07812 24.9202 5.15625 24.8163C5.23438 24.7124 4.94844 24.9202 5.15625 24.6612C5.36406 24.4022 6.19844 23.5243 6.40625 23.2653C6.61406 23.0063 6.32812 23.2141 6.40625 23.1102C6.48438 23.0063 6.79688 22.7488 6.875 22.6449C6.95312 22.541 6.77031 22.6185 6.875 22.4898C6.97969 22.3611 7.39531 21.9981 7.5 21.8694C7.60469 21.7407 7.39531 21.843 7.5 21.7143C7.60469 21.5856 8.02031 21.2226 8.125 21.0939C8.22969 20.9651 8.02031 21.0675 8.125 20.9388C8.22969 20.81 8.64531 20.4471 8.75 20.3184C8.85469 20.1896 8.64531 20.292 8.75 20.1633C8.85469 20.0345 9.27031 19.6716 9.375 19.5429C9.47969 19.4141 9.19219 19.6204 9.375 19.3878C9.55781 19.1551 10.2609 18.3532 10.4688 18.1469C10.6766 17.9407 10.5469 18.0958 10.625 18.1469C10.7031 18.1981 10.8328 18.2757 10.9375 18.4571C11.0422 18.6386 11.1453 19.0512 11.25 19.2327C11.3547 19.4141 11.4328 19.3102 11.5625 19.5429C11.6922 19.7755 11.9016 20.3959 12.0312 20.6286C12.1609 20.8612 12.2141 20.7061 12.3438 20.9388C12.4734 21.1714 12.6828 21.7918 12.8125 22.0245C12.9422 22.2571 12.9953 22.102 13.125 22.3347C13.2547 22.5673 13.4641 23.1878 13.5938 23.4204C13.7234 23.6531 13.7766 23.498 13.9062 23.7306C14.0359 23.9633 14.2453 24.5837 14.375 24.8163C14.5047 25.049 14.5312 24.8427 14.6875 25.1265C14.8438 25.4104 15.1562 26.2386 15.3125 26.5224C15.4688 26.8063 15.4953 26.6 15.625 26.8327C15.7547 27.0653 15.9641 27.6857 16.0938 27.9184C16.2234 28.151 16.2766 27.9959 16.4062 28.2286C16.5359 28.4612 16.7453 29.0816 16.875 29.3143C17.0047 29.5469 17.1359 29.5469 17.1875 29.6245C17.2391 29.702 17.1609 29.7284 17.1875 29.7796C17.2141 29.8308 17.2656 29.7796 17.3438 29.9347C17.4219 30.0898 17.5516 30.5287 17.6562 30.7102C17.7609 30.8917 17.8641 30.8389 17.9688 31.0204C18.0734 31.2019 18.1766 31.6144 18.2812 31.7959C18.3859 31.9774 17.6828 32.0549 18.5938 32.1061C19.5047 32.1573 23.75 32.1061 23.75 32.1061C23.75 32.1061 23.8281 32.0798 23.75 31.951C23.6719 31.8223 23.4109 31.5633 23.2812 31.3306C23.1516 31.098 23.0734 30.7366 22.9688 30.5551C22.8641 30.3736 22.7609 30.4264 22.6562 30.2449C22.5516 30.0634 22.4484 29.6509 22.3438 29.4694C22.2391 29.2879 22.1094 29.2879 22.0312 29.1592C21.9531 29.0304 21.9531 28.8226 21.875 28.6939C21.7969 28.5651 21.6672 28.5651 21.5625 28.3837C21.4578 28.2022 21.3547 27.7896 21.25 27.6082C21.1453 27.4267 20.9891 27.3755 20.9375 27.298C20.8859 27.2204 20.9641 27.194 20.9375 27.1429C20.9109 27.0917 20.8328 27.0917 20.7812 26.9878C20.7297 26.8838 20.7031 26.6512 20.625 26.5224C20.5469 26.3937 20.4172 26.3937 20.3125 26.2122C20.2078 26.0308 20.1047 25.6182 20 25.4367C19.8953 25.2553 19.7656 25.2553 19.6875 25.1265C19.6094 24.9978 19.6094 24.79 19.5312 24.6612C19.4531 24.5325 19.3234 24.5325 19.2188 24.351C19.1141 24.1695 19.0109 23.757 18.9062 23.5755C18.8016 23.394 18.6984 23.4468 18.5938 23.2653C18.4891 23.0838 18.3859 22.6713 18.2812 22.4898C18.1766 22.3083 18.0734 22.3611 17.9688 22.1796C17.8641 21.9981 17.7609 21.5856 17.6562 21.4041C17.5516 21.2226 17.4484 21.2753 17.3438 21.0939C17.2391 20.9124 17.1359 20.4998 17.0312 20.3184C16.9266 20.1369 16.7969 20.1369 16.7188 20.0082C16.6406 19.8794 16.6406 19.6716 16.5625 19.5429C16.4844 19.4141 16.3547 19.4141 16.25 19.2327C16.1453 19.0512 16.0422 18.6386 15.9375 18.4571C15.8328 18.2757 15.7297 18.3284 15.625 18.1469C15.5203 17.9655 15.4172 17.5529 15.3125 17.3714C15.2078 17.19 15.0781 17.19 15 17.0612C14.9219 16.9325 14.9219 16.7247 14.8438 16.5959C14.7656 16.4672 14.6359 16.4672 14.5312 16.2857C14.4266 16.1042 14.3234 15.6917 14.2188 15.5102C14.1141 15.3287 13.9578 15.2775 13.9062 15.2C13.8547 15.1224 13.9578 15.1488 13.9062 15.0449C13.8547 14.941 13.6453 14.7083 13.5938 14.5796C13.5422 14.4509 13.5672 14.3469 13.5938 14.2694C13.6203 14.1918 13.7234 14.1655 13.75 14.1143C13.7766 14.0631 13.6453 14.0879 13.75 13.9592C13.8547 13.8304 14.2703 13.4675 14.375 13.3388C14.4797 13.21 14.2703 13.3124 14.375 13.1837C14.4797 13.0549 14.8953 12.692 15 12.5633C15.1047 12.4345 14.8953 12.5369 15 12.4082C15.1047 12.2794 15.5203 11.9165 15.625 11.7878C15.7297 11.659 15.4172 11.8917 15.625 11.6327C15.8328 11.3736 16.6672 10.4958 16.875 10.2367C17.0828 9.97771 16.7969 10.1856 16.875 10.0816C16.9531 9.97771 17.2656 9.72024 17.3438 9.61633C17.4219 9.51241 17.2391 9.58996 17.3438 9.46122C17.4484 9.33249 17.8641 8.96955 17.9688 8.84082C18.0734 8.71208 17.8641 8.81445 17.9688 8.68571C18.0734 8.55698 18.4891 8.19404 18.5938 8.06531C18.6984 7.93657 18.4891 8.03894 18.5938 7.9102C18.6984 7.78147 19.1141 7.41853 19.2188 7.2898C19.3234 7.16106 19.1141 7.26343 19.2188 7.13469C19.3234 7.00596 19.7391 6.64302 19.8438 6.51429C19.9484 6.38555 19.7391 6.48792 19.8438 6.35918C19.9484 6.23045 20.3641 5.86751 20.4688 5.73878C20.5734 5.61004 20.3641 5.71241 20.4688 5.58367C20.5734 5.45494 20.9891 5.092 21.0938 4.96326C21.1984 4.83453 20.9891 4.9369 21.0938 4.80816C21.1984 4.67943 21.6141 4.31649 21.7188 4.18775C21.8234 4.05902 21.6141 4.16139 21.7188 4.03265C21.8234 3.90392 22.2391 3.54098 22.3438 3.41224C22.4484 3.28351 22.2391 3.38588 22.3438 3.25714C22.4484 3.12841 22.8641 2.76547 22.9688 2.63673C23.0734 2.508 22.8906 2.58555 22.9688 2.48163C23.0469 2.37771 23.3594 2.12024 23.4375 2.01633C23.5156 1.91241 23.4109 1.91241 23.4375 1.86122C23.4641 1.81004 23.5938 1.70612 23.5938 1.70612C23.5938 1.70612 19.1406 1.6022 18.125 1.70612C17.1094 1.81004 17.6047 2.1978 17.5 2.32653C17.3953 2.45527 17.5781 2.37771 17.5 2.48163C17.4219 2.58555 17.1094 2.84302 17.0312 2.94694C16.9531 3.05086 17.1094 2.99812 17.0312 3.10204C16.9531 3.20596 16.6406 3.46343 16.5625 3.56735C16.4844 3.67127 16.6406 3.61853 16.5625 3.72245C16.4844 3.82637 16.1719 4.08384 16.0938 4.18775C16.0156 4.29167 16.1719 4.23894 16.0938 4.34286C16.0156 4.44677 15.7031 4.70424 15.625 4.80816C15.5469 4.91208 15.7031 4.85935 15.625 4.96326C15.5469 5.06718 15.2344 5.32465 15.1562 5.42857C15.0781 5.53249 15.2609 5.45494 15.1562 5.58367C15.0516 5.71241 14.6359 6.07535 14.5312 6.20408C14.4266 6.33282 14.6094 6.25526 14.5312 6.35918C14.4531 6.4631 14.1406 6.72057 14.0625 6.82449C13.9844 6.92841 14.1406 6.87567 14.0625 6.97959C13.9844 7.08351 13.6719 7.34098 13.5938 7.4449C13.5156 7.54882 13.6719 7.49608 13.5938 7.6C13.5156 7.70392 13.2031 7.96139 13.125 8.06531C13.0469 8.16922 13.2031 8.11649 13.125 8.22041C13.0469 8.32433 12.7344 8.5818 12.6562 8.68571C12.5781 8.78963 12.7344 8.7369 12.6562 8.84082C12.5781 8.94473 12.2656 9.2022 12.1875 9.30612C12.1094 9.41004 12.2656 9.35731 12.1875 9.46122C12.1094 9.56514 11.7969 9.82261 11.7188 9.92653C11.6406 10.0304 11.8234 9.9529 11.7188 10.0816C11.6141 10.2104 11.1984 10.5733 11.0938 10.702C10.9891 10.8308 11.1719 10.7532 11.0938 10.8571C11.0156 10.9611 10.7031 11.2185 10.625 11.3224C10.5469 11.4264 10.7031 11.3736 10.625 11.4776C10.5469 11.5815 10.2344 11.8389 10.1562 11.9429C10.0781 12.0468 10.2344 11.994 10.1562 12.098C10.0781 12.2019 9.76562 12.4593 9.6875 12.5633C9.60938 12.6672 9.76562 12.6144 9.6875 12.7184C9.60938 12.8223 9.29688 13.0798 9.21875 13.1837C9.14062 13.2876 9.29688 13.2349 9.21875 13.3388C9.14062 13.4427 8.82812 13.7002 8.75 13.8041C8.67188 13.908 8.82812 13.8553 8.75 13.9592C8.67188 14.0631 8.35938 14.3206 8.28125 14.4245C8.20312 14.5284 8.35938 14.4757 8.28125 14.5796C8.20312 14.6835 7.89062 14.941 7.8125 15.0449C7.73438 15.1488 7.89062 15.0961 7.8125 15.2C7.73438 15.3039 7.42188 15.5614 7.34375 15.6653C7.26562 15.7692 7.44844 15.6917 7.34375 15.8204C7.23906 15.9491 6.82344 16.3121 6.71875 16.4408C6.61406 16.5695 6.79688 16.492 6.71875 16.5959C6.64062 16.6998 6.32812 16.9573 6.25 17.0612C6.17188 17.1651 6.32812 17.1124 6.25 17.2163C6.17188 17.3202 5.85938 17.5777 5.78125 17.6816C5.70312 17.7855 5.9375 17.6304 5.78125 17.8367C5.625 18.043 4.84375 18.9224 4.84375 18.9224C4.84375 18.9224 4.71406 21.6367 4.6875 18.7673C4.66094 15.898 4.6875 1.70612 4.6875 1.70612H0ZM130.469 0V5.27347H135V0H130.469Z" fill="#9E77ED"/>
</g>
<defs>
<clipPath id="clip0_6_18170">
<rect width="160" height="38" fill="white"/>
</clipPath>
</defs>
</svg>
