<?xml version="1.0" encoding="UTF-8"?>
<!-- Generator: Adobe Illustrator 24.2.3, SVG Export Plug-In . SVG Version: 6.00 Build 0)  -->
<svg version="1.1" id="Laag_1" xmlns="http://www.w3.org/2000/svg" xmlns:xlink="http://www.w3.org/1999/xlink" x="0px" y="0px" viewBox="0 0 193.8 48.5" style="enable-background:new 0 0 193.8 48.5;" xml:space="preserve">
<style type="text/css">
	.st0{display:none;}
	.st1{display:inline;}
	.st2{fill:currentColor;}
	.st3{fill:#B8456D;}
	.st4{fill:#139D98;}
	.st5{fill:url(#SVGID_1_);}
	.st6{fill:url(#SVGID_2_);}
	.st7{fill:url(#SVGID_3_);}
	.st8{fill:url(#SVGID_4_);}
	.st9{fill:#D07542;}
	.st10{fill:url(#SVGID_5_);}
	.st11{fill:url(#SVGID_6_);}
</style>
<g id="Medewerkers" class="st0">
	<g class="st1">
		<g>
			<path class="st2" d="M155,47.9l0.8,5.5c0.1,1.1,0.3,1.8,0.3,2.4h0.1c0.2-0.5,0.5-1.2,1-2.3l3-5.6h1.8l-5.4,9.7H155l-1.7-9.7     C153.3,47.9,155,47.9,155,47.9z"/>
			<path class="st2" d="M171.1,51.7c0,3-2.1,6.1-5.4,6.1c-2.4,0-3.8-1.8-3.8-4c0-3.2,2.2-6.1,5.4-6.1     C169.9,47.7,171.1,49.6,171.1,51.7z M163.6,53.7c0,1.6,0.9,2.7,2.3,2.7c2,0,3.4-2.5,3.4-4.8c0-1.1-0.5-2.7-2.3-2.7     C165,49,163.6,51.5,163.6,53.7z"/>
			<path class="st2" d="M181.6,51.7c0,3-2.1,6.1-5.4,6.1c-2.4,0-3.8-1.8-3.8-4c0-3.2,2.2-6.1,5.4-6.1     C180.4,47.7,181.6,49.6,181.6,51.7z M174.1,53.7c0,1.6,0.9,2.7,2.3,2.7c2,0,3.4-2.5,3.4-4.8c0-1.1-0.5-2.7-2.3-2.7     C175.5,49,174.1,51.5,174.1,53.7z"/>
			<path class="st2" d="M182.7,57.6l1.2-6.2c0.2-1.3,0.4-2.5,0.5-3.4h1.5c-0.1,0.7-0.2,1.4-0.3,2.1h0.1c0.6-1.3,1.7-2.3,3-2.3     c0.1,0,0.3,0,0.5,0l-0.3,1.6c-0.1,0-0.3,0-0.4,0c-1.4,0-2.7,1.7-3.1,4l-0.8,4.3L182.7,57.6L182.7,57.6z"/>
			<path class="st2" d="M192.7,57.6l1.3-6.9c0.2-1.1,0.3-2,0.4-2.8h1.5l-0.3,1.8h0.1c0.9-1.3,2.1-2,3.4-2c1.5,0,2.2,0.9,2.3,2.2     c0.9-1.4,2.1-2.1,3.6-2.2c1.1,0,2.3,0.7,2.3,2.5c0,0.5-0.1,1.1-0.2,1.6l-1.1,5.7h-1.6l1-5.6c0.1-0.4,0.1-0.9,0.1-1.3     c0-1-0.4-1.7-1.5-1.7c-1.2,0-2.6,1.4-3,3.6l-0.9,5h-1.6l1.1-5.7c0.1-0.4,0.1-0.8,0.1-1.2c0-0.8-0.2-1.7-1.4-1.7s-2.7,1.6-3.1,3.7     l-0.9,4.9L192.7,57.6L192.7,57.6z"/>
			<path class="st2" d="M215.9,57c-0.7,0.4-1.9,0.8-3.2,0.8c-2.6,0-3.7-1.7-3.7-3.9c0-2.9,2.2-6.2,5.3-6.2c1.8,0,2.8,1.1,2.8,2.5     c0,2.5-2.9,3.2-6.4,3.2c-0.1,0.4,0,1.3,0.2,1.8c0.4,0.9,1.2,1.3,2.2,1.3c1.1,0,2-0.4,2.6-0.7L215.9,57z M214,49     c-1.6,0-2.8,1.5-3.2,3.1c2.6,0,4.6-0.3,4.6-1.8C215.5,49.4,214.9,49,214,49z"/>
			<path class="st2" d="M228.2,43.4l-2.1,11.1c-0.2,1-0.4,2.1-0.4,3.1h-1.5l0.3-1.9l0,0c-0.9,1.4-2.1,2.1-3.5,2.1     c-1.9,0-2.9-1.5-2.9-3.5c0-3.4,2.6-6.6,6-6.6c0.6,0,1.3,0.1,1.7,0.3l0.9-4.6H228.2z M225.5,49.4c-0.3-0.2-0.9-0.4-1.6-0.4     c-2.3,0-4.1,2.5-4.1,5c0,1.2,0.4,2.4,1.8,2.4c1.3,0,2.8-1.5,3.2-3.6L225.5,49.4z"/>
			<path class="st2" d="M235.4,57c-0.7,0.4-1.9,0.8-3.2,0.8c-2.6,0-3.7-1.7-3.7-3.9c0-2.9,2.2-6.2,5.3-6.2c1.8,0,2.8,1.1,2.8,2.5     c0,2.5-2.9,3.2-6.4,3.2c-0.1,0.4,0,1.3,0.2,1.8c0.4,0.9,1.2,1.3,2.2,1.3c1.1,0,2-0.4,2.6-0.7L235.4,57z M233.6,49     c-1.6,0-2.8,1.5-3.2,3.1c2.6,0,4.6-0.3,4.6-1.8C235.1,49.4,234.5,49,233.6,49z"/>
			<path class="st2" d="M239.8,47.9l0.3,5.4c0.1,1.2,0.1,1.8,0,2.6h0.1c0.2-0.6,0.6-1.5,1.1-2.4l2.9-5.6h1.4l0.6,5.5     c0.1,1.1,0.2,1.9,0.2,2.5l0,0c0.3-0.8,0.5-1.5,0.9-2.4l2.6-5.6h1.7l-4.8,9.7h-1.5l-0.6-5.3c-0.1-0.9-0.1-1.7-0.1-2.6l0,0     c-0.4,0.9-0.7,1.7-1.1,2.5l-2.8,5.3h-1.5l-0.9-9.7L239.8,47.9L239.8,47.9z"/>
			<path class="st2" d="M258.5,57c-0.7,0.4-1.9,0.8-3.2,0.8c-2.6,0-3.7-1.7-3.7-3.9c0-2.9,2.2-6.2,5.3-6.2c1.8,0,2.8,1.1,2.8,2.5     c0,2.5-2.9,3.2-6.4,3.2c-0.1,0.4,0,1.3,0.2,1.8c0.4,0.9,1.2,1.3,2.2,1.3c1.1,0,2-0.4,2.6-0.7L258.5,57z M256.6,49     c-1.6,0-2.8,1.5-3.2,3.1c2.6,0,4.6-0.3,4.6-1.8C258.1,49.4,257.5,49,256.6,49z"/>
			<path class="st2" d="M260.5,57.6l1.2-6.2c0.2-1.3,0.4-2.5,0.5-3.4h1.5c-0.1,0.7-0.2,1.4-0.3,2.1h0.1c0.6-1.3,1.7-2.3,3-2.3     c0.1,0,0.3,0,0.5,0l-0.3,1.6c-0.1,0-0.3,0-0.4,0c-1.4,0-2.7,1.7-3.1,4l-0.8,4.3L260.5,57.6L260.5,57.6z"/>
			<path class="st2" d="M266.9,57.6l2.7-14.2h1.7l-1.7,8.9l0,0c0.3-0.3,0.7-0.7,0.9-1l3.4-3.4h2l-4.2,4l2.9,5.7h-1.8l-2.3-4.8     l-1.2,1.1l-0.7,3.7C268.6,57.6,266.9,57.6,266.9,57.6z"/>
			<path class="st2" d="M282.7,57c-0.7,0.4-1.9,0.8-3.2,0.8c-2.6,0-3.7-1.7-3.7-3.9c0-2.9,2.2-6.2,5.3-6.2c1.8,0,2.8,1.1,2.8,2.5     c0,2.5-2.9,3.2-6.4,3.2c-0.1,0.4,0,1.3,0.2,1.8c0.4,0.9,1.2,1.3,2.2,1.3c1.1,0,2-0.4,2.6-0.7L282.7,57z M280.9,49     c-1.6,0-2.8,1.5-3.2,3.1c2.6,0,4.6-0.3,4.6-1.8C282.4,49.4,281.8,49,280.9,49z"/>
			<path class="st2" d="M284.8,57.6l1.2-6.2c0.2-1.3,0.4-2.5,0.5-3.4h1.5c-0.1,0.7-0.2,1.4-0.3,2.1h0.1c0.6-1.3,1.7-2.3,3-2.3     c0.1,0,0.3,0,0.5,0l-0.3,1.6c-0.1,0-0.3,0-0.4,0c-1.4,0-2.7,1.7-3.1,4l-0.8,4.3L284.8,57.6L284.8,57.6z"/>
			<path class="st2" d="M291.2,55.9c0.5,0.3,1.3,0.6,2.1,0.6c1.1,0,1.8-0.7,1.8-1.6c0-0.8-0.3-1.2-1.3-1.8c-1.1-0.6-1.7-1.5-1.7-2.5     c0-1.7,1.5-3,3.5-3c0.9,0,1.7,0.2,2,0.5l-0.5,1.3c-0.3-0.2-1-0.4-1.7-0.4c-1,0-1.7,0.6-1.7,1.5c0,0.7,0.5,1.1,1.3,1.6     c1.1,0.6,1.8,1.5,1.8,2.5c0,2-1.7,3.2-3.7,3.2c-1,0-2-0.3-2.4-0.7L291.2,55.9z"/>
		</g>
		<g>
			<path class="st2" d="M127.1,7.6h5.6l-12.9,26.3c-0.8,1.6-2.3,2.6-4,2.7c-1.7,0-3.1-1.1-3.5-2.7l-5.5-26.3h5.7l4.2,21.8L127.1,7.6     z"/>
			<path class="st2" d="M142.5,32.3c1.8,0,4-0.3,5.9-1.4h0.7l-0.7,4.9c-2.4,0.7-4.4,0.9-6.9,0.9c-3,0-6.1-1-8.1-3.1     c-1.7-1.8-2.4-4.8-2.3-7.1c0.2-3.6,1.2-6.2,3.5-8.8c2.1-2.3,5-3.4,8.1-3.4c3.9,0,6.9,2,7.9,5.6c0.7,2.6,0.4,5-0.1,7.6h-14     C136.5,31,139.5,32.4,142.5,32.3z M137.1,23.3h8.7c0.2-2.7-1-4.4-3.6-4.4C139.5,18.8,137.7,20.8,137.1,23.3z"/>
			<path class="st2" d="M175.1,22.3l-2,14h-5.2l1.9-13.4c0.3-2.1-0.4-3.7-2.7-3.7c-1.7,0-4,0.8-5.6,1.8l-2.2,15.4h-5.2l3-21.5h5     l-0.2,1.4c2.1-1,4.4-1.8,6.5-1.8C173,14.3,175.7,17.5,175.1,22.3z"/>
			<path class="st2" d="M177.9,35.7l0.6-4.6h0.7c1.6,0.7,4.1,1.1,5.9,1.1c1.5,0,4-0.3,4.2-2.3c0.2-1.1-1.4-1.6-2.3-2     c-1.7-0.7-3.4-1.2-4.9-2.1c-2-1.1-2.6-3.5-2.3-5.7c0.6-4.1,4.7-5.9,8.2-5.9c2.6,0,4.3,0.5,6.4,1.1l-0.6,4.4h-0.7     c-1.4-0.6-3.5-1-5.1-1c-0.8,0-3.1,0.2-3.3,1.4c-0.1,0.7,1,1.3,1.9,1.6c1.7,0.7,3.7,1.2,5.2,2.1c2.5,1.3,2.7,3.9,2.4,6.1     c-0.7,4.9-5.5,6.7-10.1,6.7C181.9,36.7,179.9,36.3,177.9,35.7z"/>
			<path class="st2" d="M203.9,29.4c-0.2,1.8,0.9,2.7,2.5,2.7c1.1,0,2.2-0.5,3.2-0.9h0.8l-0.7,4.6c-1.6,0.5-3,0.9-4.7,0.9     c-5.1,0-7-2.9-6.3-8l1.3-9.5h-2.2l0.6-4.5h2.3l0.7-5h5.2l-0.7,5h5.5l-0.6,4.5h-5.5L203.9,29.4z"/>
			<path class="st2" d="M224.5,32.3c1.8,0,4-0.3,5.9-1.4h0.7l-0.7,4.9c-2.4,0.7-4.4,0.9-6.9,0.9c-3,0-6.1-1-8.1-3.1     c-1.7-1.8-2.4-4.8-2.3-7.1c0.2-3.6,1.2-6.2,3.5-8.8c2.1-2.3,5-3.4,8.1-3.4c3.9,0,6.9,2,7.9,5.6c0.7,2.6,0.4,5-0.1,7.6h-14.1     C218.6,31,221.5,32.4,224.5,32.3z M219.2,23.3h8.7c0.2-2.7-1-4.4-3.6-4.4C221.6,18.8,219.8,20.8,219.2,23.3z"/>
			<path class="st2" d="M250.6,19.2h-0.7c-1.7-0.7-4.5,0-6.3,1.1l-2.3,16h-5.2l3-21.5h5l-0.2,1.4c2.3-1.1,4.8-1.8,7.3-1.8     L250.6,19.2z"/>
		</g>
		<polygon class="st3" points="71,15 71,30.7 83.3,23.6 83.3,7.9   "/>
		<path class="st4" d="M71,35.6v8.1c0,3.1,3.3,5,6,3.5l17.5-10.1c1.8-1.1,3-3,3-5.1V20.4L71,35.6z"/>
		<g>
			
				<linearGradient id="SVGID_1_" gradientUnits="userSpaceOnUse" x1="57.302" y1="1136.2697" x2="95.1867" y2="1159.8284" gradientTransform="matrix(1 0 0 1 0 -1135.033)">
				<stop offset="0" style="stop-color:#108081"/>
				<stop offset="1" style="stop-color:#103550"/>
			</linearGradient>
			<polygon class="st5" points="87.7,14.6 87.7,26 97.4,20.4 97.4,20.2    "/>
			
				<linearGradient id="SVGID_2_" gradientUnits="userSpaceOnUse" x1="56.3542" y1="1141.5605" x2="90.3607" y2="1162.7075" gradientTransform="matrix(1 0 0 1 0 -1135.033)">
				<stop offset="0" style="stop-color:#108081"/>
				<stop offset="1" style="stop-color:#103550"/>
			</linearGradient>
			<path class="st6" d="M61.7-0.4c-1.9-1.1-4.3,0.3-4.3,2.5v15.8V18l9.1,5.3V12.7l9-5.2L61.7-0.4z"/>
		</g>
	</g>
</g>
<g id="Venster">
	<g>
		<g>
			<path class="st2" d="M69.7,8.4h5.6L62.4,34.7c-0.8,1.6-2.3,2.6-4,2.7c-1.7,0-3.1-1.1-3.5-2.7L49.4,8.4h5.7l4.2,21.8L69.7,8.4z"/>
			<path class="st2" d="M85.1,33.1c1.8,0,4-0.3,5.9-1.4h0.7L91,36.6c-2.4,0.7-4.4,0.9-6.9,0.9c-3,0-6.1-1-8.1-3.1     c-1.7-1.8-2.4-4.8-2.3-7.1c0.2-3.6,1.2-6.2,3.5-8.8c2.1-2.3,5-3.4,8.1-3.4c3.9,0,6.9,2,7.9,5.6c0.7,2.6,0.4,5-0.1,7.6h-14     C79.1,31.8,82.1,33.2,85.1,33.1z M79.7,24.1h8.7c0.2-2.7-1-4.4-3.6-4.4C82.1,19.6,80.3,21.6,79.7,24.1z"/>
			<path class="st2" d="M117.7,23.1l-2,14h-5.2l1.9-13.4c0.3-2.1-0.4-3.7-2.7-3.7c-1.7,0-4,0.8-5.6,1.8l-2.2,15.4h-5.2l3-21.5h5     l-0.2,1.4c2.1-1,4.4-1.8,6.5-1.8C115.6,15.1,118.3,18.3,117.7,23.1z"/>
			<path class="st2" d="M120.5,36.5l0.6-4.6h0.7c1.6,0.7,4.1,1.1,5.9,1.1c1.5,0,4-0.3,4.2-2.3c0.2-1.1-1.4-1.6-2.3-2     c-1.7-0.7-3.4-1.2-4.9-2.1c-2-1.1-2.6-3.5-2.3-5.7c0.6-4.1,4.7-5.9,8.2-5.9c2.6,0,4.3,0.5,6.4,1.1l-0.6,4.4h-0.7     c-1.4-0.6-3.5-1-5.1-1c-0.8,0-3.1,0.2-3.3,1.4c-0.1,0.7,1,1.3,1.9,1.6c1.7,0.7,3.7,1.2,5.2,2.1c2.5,1.3,2.7,3.9,2.4,6.1     c-0.7,4.9-5.5,6.7-10.1,6.7C124.5,37.5,122.5,37.1,120.5,36.5z"/>
			<path class="st2" d="M146.5,30.2c-0.2,1.8,0.9,2.7,2.5,2.7c1.1,0,2.2-0.5,3.2-0.9h0.8l-0.7,4.6c-1.6,0.5-3,0.9-4.7,0.9     c-5.1,0-7-2.9-6.3-8l1.3-9.5h-2.2l0.6-4.5h2.3l0.7-5h5.2l-0.7,5h5.5l-0.6,4.5h-5.5L146.5,30.2z"/>
			<path class="st2" d="M167.1,33.1c1.8,0,4-0.3,5.9-1.4h0.7l-0.7,4.9c-2.4,0.7-4.4,0.9-6.9,0.9c-3,0-6.1-1-8.1-3.1     c-1.7-1.8-2.4-4.8-2.3-7.1c0.2-3.6,1.2-6.2,3.5-8.8c2.1-2.3,5-3.4,8.1-3.4c3.9,0,6.9,2,7.9,5.6c0.7,2.6,0.4,5-0.1,7.6H161     C161.2,31.8,164.1,33.2,167.1,33.1z M161.8,24.1h8.7c0.2-2.7-1-4.4-3.6-4.4C164.2,19.6,162.4,21.6,161.8,24.1z"/>
			<path class="st2" d="M193.2,20h-0.7c-1.7-0.7-4.5,0-6.3,1.1l-2.3,16h-5.2l3-21.5h5l-0.2,1.4c2.3-1.1,4.8-1.8,7.3-1.8L193.2,20z"/>
		</g>
		<polygon class="st4" points="13.6,15.8 13.6,31.5 25.9,24.4 25.9,8.7   "/>
		<path class="st4" d="M13.6,36.4v8.1c0,3.1,3.3,5,6,3.5l17.5-10.1c1.8-1.1,3-3,3-5.1V21.2L13.6,36.4z"/>
		<g>
			
				<linearGradient id="SVGID_3_" gradientUnits="userSpaceOnUse" x1="-5.572259e-02" y1="1137.0404" x2="37.829" y2="1160.599" gradientTransform="matrix(1 0 0 1 0 -1135.033)">
				<stop offset="0" style="stop-color:#108081"/>
				<stop offset="1" style="stop-color:#103550"/>
			</linearGradient>
			<polygon class="st7" points="30.3,15.4 30.3,26.8 40,21.2 40,21    "/>
			
				<linearGradient id="SVGID_4_" gradientUnits="userSpaceOnUse" x1="-1.0035" y1="1142.3312" x2="33.003" y2="1163.4781" gradientTransform="matrix(1 0 0 1 0 -1135.033)">
				<stop offset="0" style="stop-color:#108081"/>
				<stop offset="1" style="stop-color:#103550"/>
			</linearGradient>
			<path class="st8" d="M4.3,0.4C2.4-0.7,0,0.7,0,2.9v15.8v0.1l9.1,5.3V13.5l9-5.2L4.3,0.4z"/>
		</g>
	</g>
</g>
<g id="Bedrijfsvoering" class="st0">
	<g class="st1">
		<g>
			<path class="st2" d="M155,47.9l0.8,5.5c0.1,1.1,0.3,1.8,0.3,2.4h0.1c0.2-0.5,0.5-1.2,1-2.3l3-5.6h1.8l-5.4,9.7h-1.7l-1.7-9.7     C153.2,47.9,155,47.9,155,47.9z"/>
			<path class="st2" d="M171,51.8c0,3-2.1,6.1-5.4,6.1c-2.4,0-3.8-1.8-3.8-4c0-3.2,2.2-6.1,5.4-6.1C169.9,47.7,171,49.7,171,51.8z      M163.6,53.8c0,1.6,0.9,2.7,2.3,2.7c2,0,3.4-2.5,3.4-4.8c0-1.1-0.5-2.7-2.3-2.7C165,49,163.6,51.6,163.6,53.8z"/>
			<path class="st2" d="M181.5,51.8c0,3-2.1,6.1-5.4,6.1c-2.4,0-3.8-1.8-3.8-4c0-3.2,2.2-6.1,5.4-6.1     C180.4,47.7,181.5,49.7,181.5,51.8z M174.1,53.8c0,1.6,0.9,2.7,2.3,2.7c2,0,3.4-2.5,3.4-4.8c0-1.1-0.5-2.7-2.3-2.7     C175.5,49,174.1,51.6,174.1,53.8z"/>
			<path class="st2" d="M182.7,57.6l1.2-6.2c0.2-1.3,0.4-2.5,0.5-3.4h1.5c-0.1,0.7-0.2,1.4-0.3,2.1h0.1c0.6-1.3,1.7-2.3,3-2.3     c0.1,0,0.3,0,0.5,0l-0.3,1.6c-0.1,0-0.3,0-0.4,0c-1.4,0-2.7,1.7-3.1,4l-0.8,4.3L182.7,57.6L182.7,57.6z"/>
			<path class="st2" d="M197,43.4l-1.3,6.3l0,0c0.9-1.3,2.1-2,3.4-2c2.1,0,2.9,1.8,2.9,3.5c0,3-2.1,6.6-6,6.6c-1.7,0-3-0.7-3-2.5     c0-0.5,0.1-1,0.2-1.5l2.1-10.4C195.3,43.4,197,43.4,197,43.4z M194.9,53.9c-0.1,0.3-0.1,0.7-0.1,1.2c0,0.9,0.5,1.4,1.6,1.4     c2.5,0,4-3,4-5.1c0-1.2-0.5-2.3-1.8-2.3c-1.4,0-2.9,1.5-3.4,3.8L194.9,53.9z"/>
			<path class="st2" d="M210.2,57.1c-0.7,0.4-1.9,0.8-3.2,0.8c-2.6,0-3.7-1.7-3.7-3.9c0-2.9,2.2-6.2,5.3-6.2c1.8,0,2.8,1.1,2.8,2.5     c0,2.5-2.9,3.2-6.4,3.2c-0.1,0.4,0,1.3,0.2,1.8c0.4,0.9,1.2,1.3,2.2,1.3c1.1,0,2-0.4,2.6-0.7L210.2,57.1z M208.4,49     c-1.6,0-2.8,1.5-3.2,3.1c2.6,0,4.6-0.3,4.6-1.8C209.9,49.5,209.3,49,208.4,49z"/>
			<path class="st2" d="M222.6,43.4l-2.1,11.1c-0.2,1-0.4,2.1-0.4,3.1h-1.5l0.3-1.9l0,0c-0.9,1.4-2.1,2.1-3.5,2.1     c-1.9,0-2.9-1.5-2.9-3.5c0-3.4,2.6-6.6,6-6.6c0.6,0,1.3,0.1,1.7,0.3l0.9-4.6H222.6z M219.8,49.5c-0.3-0.2-0.9-0.4-1.6-0.4     c-2.3,0-4.1,2.5-4.1,5c0,1.2,0.4,2.4,1.8,2.4c1.3,0,2.8-1.5,3.2-3.6L219.8,49.5z"/>
			<path class="st2" d="M222.8,57.6l1.2-6.2c0.2-1.3,0.4-2.5,0.5-3.4h1.5c-0.1,0.7-0.2,1.4-0.3,2.1h0.1c0.6-1.3,1.7-2.3,3-2.3     c0.1,0,0.3,0,0.5,0l-0.3,1.6c-0.1,0-0.3,0-0.4,0c-1.4,0-2.7,1.7-3.1,4l-0.8,4.3L222.8,57.6L222.8,57.6z"/>
			<path class="st2" d="M229.2,57.6l1.9-9.7h1.7l-1.9,9.7H229.2z M231.3,45.2c0-0.6,0.5-1.1,1.1-1.1s1,0.4,1,1     c0,0.7-0.5,1.1-1.1,1.1C231.7,46.3,231.3,45.8,231.3,45.2z"/>
			<path class="st2" d="M237.3,47.9l-1.8,9.6c-0.3,1.6-0.6,2.6-1.2,3.3c-0.6,0.6-1.4,0.9-2.2,0.9c-0.4,0-0.8,0-1.1-0.1l0.2-1.3     c0.2,0,0.4,0.1,0.8,0.1c0.8,0,1.5-0.5,1.9-2.5l1.9-10C235.8,47.9,237.3,47.9,237.3,47.9z M235.9,45.2c0-0.6,0.5-1.1,1.1-1.1     s1,0.4,1,1c0,0.7-0.5,1.1-1.1,1.1C236.3,46.3,235.9,45.8,235.9,45.2z"/>
			<path class="st2" d="M238.5,57.6l1.6-8.4h-1.3l0.2-1.3h1.3l0.1-0.5c0.2-1.4,0.7-2.6,1.6-3.4c0.6-0.6,1.5-0.9,2.3-0.9     c0.7,0,1.1,0.1,1.3,0.3l-0.4,1.3c-0.3-0.1-0.6-0.2-1-0.2c-1.3,0-2,1.3-2.2,2.9l-0.1,0.5h2.2l-0.3,1.3h-2.1l-1.6,8.4     C240.1,57.6,238.5,57.6,238.5,57.6z"/>
			<path class="st2" d="M244,55.9c0.5,0.3,1.3,0.6,2.1,0.6c1.1,0,1.8-0.7,1.8-1.6c0-0.8-0.3-1.2-1.3-1.8c-1.1-0.6-1.7-1.5-1.7-2.5     c0-1.7,1.5-3,3.5-3c0.9,0,1.7,0.2,2,0.5l-0.5,1.3c-0.3-0.2-1-0.4-1.7-0.4c-1,0-1.7,0.6-1.7,1.5c0,0.7,0.5,1.1,1.3,1.6     c1.1,0.6,1.8,1.5,1.8,2.5c0,2-1.7,3.2-3.7,3.2c-1,0-2-0.3-2.4-0.7L244,55.9z"/>
			<path class="st2" d="M253.6,47.9l0.8,5.5c0.1,1.1,0.3,1.8,0.3,2.4h0.1c0.2-0.5,0.5-1.2,1-2.3l3-5.6h1.8l-5.4,9.7h-1.6l-1.7-9.7     C251.9,47.9,253.6,47.9,253.6,47.9z"/>
			<path class="st2" d="M269.6,51.8c0,3-2.1,6.1-5.4,6.1c-2.4,0-3.8-1.8-3.8-4c0-3.2,2.2-6.1,5.4-6.1     C268.5,47.7,269.6,49.7,269.6,51.8z M262.2,53.8c0,1.6,0.9,2.7,2.3,2.7c2,0,3.4-2.5,3.4-4.8c0-1.1-0.5-2.7-2.3-2.7     C263.6,49,262.2,51.6,262.2,53.8z"/>
			<path class="st2" d="M277.8,57.1c-0.7,0.4-1.9,0.8-3.2,0.8c-2.6,0-3.7-1.7-3.7-3.9c0-2.9,2.2-6.2,5.3-6.2c1.8,0,2.8,1.1,2.8,2.5     c0,2.5-2.9,3.2-6.4,3.2c-0.1,0.4,0,1.3,0.2,1.8c0.4,0.9,1.2,1.3,2.2,1.3c1.1,0,2-0.4,2.6-0.7L277.8,57.1z M276,49     c-1.6,0-2.8,1.5-3.2,3.1c2.6,0,4.6-0.3,4.6-1.8C277.5,49.5,276.8,49,276,49z"/>
			<path class="st2" d="M279.9,57.6l1.2-6.2c0.2-1.3,0.4-2.5,0.5-3.4h1.5c-0.1,0.7-0.2,1.4-0.3,2.1h0.1c0.6-1.3,1.7-2.3,3-2.3     c0.1,0,0.3,0,0.5,0l-0.3,1.6c-0.1,0-0.3,0-0.4,0c-1.4,0-2.7,1.7-3.1,4l-0.8,4.3L279.9,57.6L279.9,57.6z"/>
			<path class="st2" d="M286.2,57.6l1.9-9.7h1.7l-1.9,9.7H286.2z M288.4,45.2c0-0.6,0.5-1.1,1.1-1.1s1,0.4,1,1     c0,0.7-0.5,1.1-1.1,1.1C288.8,46.3,288.4,45.8,288.4,45.2z"/>
			<path class="st2" d="M290.8,57.6l1.3-6.9c0.2-1.1,0.3-2,0.5-2.8h1.5l-0.2,1.9l0,0c0.9-1.4,2.2-2.1,3.6-2.1c1.2,0,2.5,0.7,2.5,2.7     c0,0.4-0.1,1-0.2,1.6l-1.1,5.6H297l1.1-5.6c0.1-0.4,0.1-0.8,0.1-1.2c0-1-0.4-1.7-1.5-1.7c-1.2,0-2.9,1.4-3.3,3.8l-0.9,4.7H290.8z     "/>
			<path class="st2" d="M301.6,59.8c0.6,0.4,1.5,0.6,2.6,0.6c1.6,0,2.9-0.8,3.5-3.5l0.3-1.4h-0.1c-0.8,1.4-2,2.1-3.4,2.1     c-1.9,0-2.9-1.6-2.9-3.4c0-3.3,2.4-6.5,6.1-6.5c1.1,0,2.3,0.3,3.1,0.7l-1.5,8c-0.4,2-0.9,3.5-2,4.3c-1,0.8-2.3,1.1-3.4,1.1     c-1.2,0-2.3-0.3-2.9-0.7L301.6,59.8z M309,49.4c-0.3-0.1-0.9-0.3-1.6-0.3c-2.4,0-4.1,2.5-4.1,4.9c0,1.1,0.4,2.3,1.9,2.3     c1.4,0,2.9-1.8,3.2-3.7L309,49.4z"/>
		</g>
		<g>
			<path class="st2" d="M127,7.6h5.6L119.7,34c-0.8,1.6-2.3,2.6-4,2.7c-1.7,0-3.1-1.1-3.5-2.7l-5.5-26.4h5.7l4.2,21.8L127,7.6z"/>
			<path class="st2" d="M142.4,32.3c1.8,0,4-0.3,5.9-1.4h0.7l-0.7,4.9c-2.4,0.7-4.4,0.9-6.9,0.9c-3,0-6.1-1-8.1-3.1     c-1.7-1.8-2.4-4.8-2.3-7.1c0.2-3.6,1.2-6.2,3.5-8.8c2.1-2.3,5-3.4,8.1-3.4c3.9,0,6.9,2,7.9,5.6c0.7,2.6,0.4,5-0.1,7.6h-14     C136.5,31,139.4,32.4,142.4,32.3z M137.1,23.3h8.7c0.2-2.7-1-4.4-3.6-4.4C139.5,18.9,137.7,20.9,137.1,23.3z"/>
			<path class="st2" d="M175,22.4l-2,14h-5.2l1.9-13.4c0.3-2.1-0.4-3.7-2.7-3.7c-1.7,0-4,0.8-5.6,1.8l-2.2,15.4H154l3-21.5h5     l-0.2,1.4c2.1-1,4.4-1.8,6.5-1.8C173,14.4,175.7,17.6,175,22.4z"/>
			<path class="st2" d="M177.8,35.7l0.6-4.6h0.7c1.6,0.7,4.1,1.1,5.9,1.1c1.5,0,4-0.3,4.2-2.3c0.2-1.1-1.4-1.6-2.3-2     c-1.7-0.7-3.4-1.2-4.9-2.1c-2-1.1-2.6-3.5-2.3-5.7c0.6-4.1,4.7-5.9,8.2-5.9c2.6,0,4.3,0.5,6.4,1.1l-0.6,4.4H193     c-1.4-0.6-3.5-1-5.1-1c-0.8,0-3.1,0.2-3.3,1.4c-0.1,0.7,1,1.3,1.9,1.6c1.7,0.7,3.7,1.2,5.2,2.1c2.5,1.3,2.7,3.9,2.4,6.1     c-0.7,4.9-5.5,6.7-10.1,6.7C181.8,36.8,179.8,36.4,177.8,35.7z"/>
			<path class="st2" d="M203.8,29.5c-0.2,1.8,0.9,2.7,2.5,2.7c1.1,0,2.2-0.5,3.2-0.9h0.8l-0.7,4.6c-1.6,0.5-3,0.9-4.7,0.9     c-5.1,0-7-2.9-6.3-8l1.3-9.5h-2.3l0.6-4.5h2.3l0.7-5h5.2l-0.7,5h5.5l-0.6,4.5h-5.5L203.8,29.5z"/>
			<path class="st2" d="M224.5,32.3c1.8,0,4-0.3,5.9-1.4h0.7l-0.7,4.9c-2.4,0.7-4.4,0.9-6.9,0.9c-3,0-6.1-1-8.1-3.1     c-1.7-1.8-2.4-4.8-2.3-7.1c0.2-3.6,1.2-6.2,3.5-8.8c2.1-2.3,5-3.4,8.1-3.4c3.9,0,6.9,2,7.9,5.6c0.7,2.6,0.4,5-0.1,7.6h-14.1     C218.5,31,221.5,32.4,224.5,32.3z M219.1,23.3h8.7c0.2-2.7-1-4.4-3.6-4.4C221.5,18.9,219.7,20.9,219.1,23.3z"/>
			<path class="st2" d="M250.5,19.3h-0.6c-1.7-0.7-4.5,0-6.3,1.1l-2.3,16h-5.2l3-21.5h5l-0.2,1.4c2.3-1.1,4.8-1.8,7.3-1.8     L250.5,19.3z"/>
		</g>
		<polygon class="st9" points="70.9,15 70.9,30.8 83.2,23.7 83.2,7.9   "/>
		<path class="st4" d="M70.9,35.7v8.1c0,3.1,3.3,5,6,3.5l17.5-10.1c1.8-1.1,3-3,3-5.1V20.4L70.9,35.7z"/>
		<g>
			
				<linearGradient id="SVGID_5_" gradientUnits="userSpaceOnUse" x1="57.2733" y1="1136.283" x2="95.1581" y2="1159.8416" gradientTransform="matrix(1 0 0 1 0 -1135.033)">
				<stop offset="0" style="stop-color:#108081"/>
				<stop offset="1" style="stop-color:#103550"/>
			</linearGradient>
			<polygon class="st10" points="87.7,14.6 87.7,26 97.3,20.4 97.3,20.2    "/>
			
				<linearGradient id="SVGID_6_" gradientUnits="userSpaceOnUse" x1="56.3171" y1="1141.5875" x2="90.3236" y2="1162.7345" gradientTransform="matrix(1 0 0 1 0 -1135.033)">
				<stop offset="0" style="stop-color:#108081"/>
				<stop offset="1" style="stop-color:#103550"/>
			</linearGradient>
			<path class="st11" d="M61.7-0.4c-1.9-1.1-4.3,0.3-4.3,2.5V18v0.1l9.1,5.3V12.7l9-5.2L61.7-0.4z"/>
		</g>
	</g>
</g>
</svg>